<svg width="249" height="50" viewBox="0 0 249 50" fill="none" xmlns="http://www.w3.org/2000/svg">
<g clip-path="url(#clip0_338_783)">
<path d="M24.41 0.00020846C10.2915 0.0567048 -1.0473 12.1074 0.0769772 26.4688C0.997867 38.2482 10.3989 47.8016 22.1671 48.8976C29.7771 49.6096 36.7657 46.813 41.7035 41.9431V45.3896C41.7035 47.4063 43.3419 49.0447 45.359 49.0447C47.3757 49.0447 49.0141 47.4063 49.0141 45.3896V24.9094C49.0141 11.3786 37.9465 -0.0562879 24.4156 0.00020846H24.41ZM26.3704 41.6041C15.427 42.7623 6.24639 33.5816 7.40454 22.6383C8.252 14.661 14.6587 8.25434 22.636 7.40687C33.5793 6.24872 42.76 15.4294 41.6018 26.3727C40.7544 34.35 34.3477 40.7567 26.3704 41.6041Z" fill="white"/>
<path d="M33.4717 25.5364C32.1779 24.7738 30.726 24.3896 29.274 24.3896C27.743 24.3896 26.2063 24.8133 24.8617 25.6664C22.5284 27.141 19.5623 27.1862 17.0765 25.9884L11.7884 23.4404C11.7093 24.35 11.7263 25.2766 11.8732 26.2653C12.7828 32.3838 17.9917 37.1126 24.1724 37.2708C30.3136 37.4289 35.5112 33.2369 36.9011 27.5534L33.4717 25.5308V25.5364Z" fill="#3F784B"/>
<path d="M27.206 15.5645C28.4659 15.8018 29.5563 14.717 29.3133 13.4572C29.1777 12.7566 28.6072 12.1803 27.9066 12.0504C26.6467 11.8131 25.5563 12.8978 25.7993 14.1577C25.9349 14.8583 26.5055 15.4345 27.206 15.5645Z" fill="#3F784B"/>
<path d="M19.5454 24.0058C22.0935 24.4861 24.2855 22.2997 23.7996 19.7517C23.5285 18.328 22.3816 17.1811 20.9579 16.9099C18.4099 16.4297 16.2178 18.6161 16.7037 21.1641C16.9749 22.5878 18.1218 23.7347 19.5454 24.0058Z" fill="#3F784B"/>
<path d="M30.5959 20.4575C31.0592 20.4575 31.4321 20.0846 31.4321 19.6213C31.4321 19.158 31.0592 18.7852 30.5959 18.7852C30.1327 18.7852 29.7598 19.158 29.7598 19.6213C29.7598 20.0846 30.1327 20.4575 30.5959 20.4575Z" fill="#3F784B"/>
<path d="M62.9537 34.7305C62.3619 34.7305 61.8658 34.5968 61.4651 34.3296C61.0643 34.0434 60.8161 33.6617 60.7207 33.1845C60.6254 32.6883 60.7113 32.1348 60.9784 31.5241L68.1069 16.1792C68.4501 15.4348 68.8702 14.8909 69.3662 14.5473C69.8817 14.2038 70.4641 14.032 71.1126 14.032C71.7616 14.032 72.3247 14.2038 72.8019 14.5473C73.298 14.8909 73.7275 15.4348 74.09 16.1792L81.2185 31.5241C81.5239 32.1348 81.6291 32.6883 81.5338 33.1845C81.4573 33.6807 81.2185 34.0624 80.8178 34.3296C80.4364 34.5968 79.9592 34.7305 79.3867 34.7305C78.623 34.7305 78.0316 34.5587 77.6115 34.2151C77.2108 33.8716 76.8478 33.3181 76.5236 32.5547L74.9778 28.9188L76.9818 30.3789H65.1867L67.2191 28.9188L65.6734 32.5547C65.3298 33.3181 64.9767 33.8716 64.6142 34.2151C64.2513 34.5587 63.6981 34.7305 62.9537 34.7305ZM71.0555 19.7863L67.7346 27.7164L66.9331 26.3423H75.2638L74.4624 27.7164L71.1126 19.7863H71.0555ZM86.4774 34.7305C85.6377 34.7305 84.9887 34.5014 84.5309 34.0434C84.0726 33.5662 83.8437 32.8982 83.8437 32.0394V16.7231C83.8437 15.8451 84.0726 15.1772 84.5309 14.7191C84.9887 14.261 85.6377 14.032 86.4774 14.032C87.3364 14.032 87.9854 14.261 88.4244 14.7191C88.8822 15.1772 89.1116 15.8451 89.1116 16.7231V22.0766H97.4423V16.7231C97.4423 15.8451 97.6618 15.1772 98.1007 14.7191C98.559 14.261 99.2174 14.032 100.076 14.032C100.916 14.032 101.555 14.261 101.994 14.7191C102.452 15.1772 102.681 15.8451 102.681 16.7231V32.0394C102.681 32.8982 102.452 33.5662 101.994 34.0434C101.555 34.5014 100.916 34.7305 100.076 34.7305C99.2174 34.7305 98.559 34.5014 98.1007 34.0434C97.6618 33.5662 97.4423 32.8982 97.4423 32.0394V26.3995H89.1116V32.0394C89.1116 32.8982 88.8921 33.5662 88.4531 34.0434C88.0142 34.5014 87.3558 34.7305 86.4774 34.7305ZM108.64 34.7305C108.297 34.7305 107.981 34.6732 107.695 34.5587C107.409 34.4442 107.161 34.2819 106.951 34.072C106.76 33.843 106.607 33.5662 106.493 33.2418C106.397 32.9173 106.35 32.5451 106.35 32.1252V16.4941C106.35 15.6924 106.56 15.0817 106.98 14.6618C107.399 14.242 108.01 14.032 108.811 14.032C109.613 14.032 110.215 14.242 110.615 14.6618C111.035 15.0817 111.245 15.6924 111.245 16.4941V26.8576H110.444L119.519 15.5207C119.939 14.9863 120.33 14.6046 120.693 14.3755C121.074 14.1465 121.59 14.032 122.238 14.032C122.677 14.032 123.05 14.1275 123.355 14.3183C123.679 14.5092 123.928 14.7859 124.099 15.1485C124.271 15.4921 124.357 15.9024 124.357 16.3795V32.2398C124.357 33.0604 124.147 33.6807 123.727 34.1006C123.326 34.5205 122.725 34.7305 121.923 34.7305C121.122 34.7305 120.511 34.5205 120.091 34.1006C119.69 33.6807 119.49 33.0604 119.49 32.2398V21.8762H120.263L111.216 33.2418C110.797 33.7571 110.405 34.1388 110.043 34.3869C109.699 34.616 109.232 34.7305 108.64 34.7305ZM130.679 34.7305C129.839 34.7305 129.19 34.5014 128.732 34.0434C128.274 33.5662 128.045 32.9078 128.045 32.068V16.6944C128.045 15.8165 128.274 15.1581 128.732 14.7191C129.19 14.261 129.839 14.032 130.679 14.032C131.537 14.032 132.186 14.261 132.625 14.7191C133.084 15.1581 133.312 15.8165 133.312 16.6944V22.3629H135.746L135.001 22.8782L139.468 15.3775C139.83 14.7859 140.26 14.3946 140.756 14.2038C141.252 13.9938 141.739 13.9461 142.216 14.0606C142.712 14.1751 143.132 14.4137 143.475 14.7763C143.838 15.1199 144.048 15.5589 144.106 16.0933C144.163 16.6086 144 17.1716 143.618 17.7823L139.697 23.9661L137.578 22.5633C138.914 22.8114 140.021 23.2886 140.899 23.9948C141.796 24.7009 142.579 25.7316 143.247 27.0866L145.165 31.0087C145.508 31.7149 145.613 32.3352 145.48 32.8696C145.365 33.404 145.098 33.8334 144.678 34.1579C144.258 34.4823 143.781 34.6732 143.247 34.7305C142.712 34.7877 142.197 34.6827 141.701 34.4155C141.204 34.1483 140.813 33.7094 140.527 33.0986L138.58 28.8043C138.217 28.0218 137.769 27.4684 137.234 27.1439C136.7 26.8194 136.013 26.6572 135.173 26.6572H133.312V32.068C133.312 32.9078 133.093 33.5662 132.654 34.0434C132.215 34.5014 131.557 34.7305 130.679 34.7305Z" fill="white"/>
<path d="M155.246 34.7307C154.405 34.7307 153.757 34.5017 153.299 34.0436C152.841 33.5665 152.611 32.908 152.611 32.0682V17.0096C152.611 16.1317 152.841 15.4636 153.299 15.0056C153.776 14.5284 154.454 14.2899 155.331 14.2899H164.951C165.657 14.2899 166.191 14.4712 166.554 14.8338C166.935 15.1964 167.126 15.7308 167.126 16.437C167.126 17.1241 166.935 17.6585 166.554 18.0402C166.191 18.4028 165.657 18.5841 164.951 18.5841H157.879V32.0682C157.879 32.908 157.66 33.5665 157.221 34.0436C156.782 34.5017 156.123 34.7307 155.246 34.7307ZM171.824 34.7307C170.984 34.7307 170.335 34.5017 169.878 34.0436C169.419 33.5665 169.19 32.908 169.19 32.0682V16.9523C169.19 16.0935 169.419 15.435 169.878 14.977C170.354 14.5189 171.013 14.2899 171.853 14.2899H178.896C181.186 14.2899 182.951 14.8815 184.192 16.0648C185.452 17.2291 186.081 18.8418 186.081 20.9031C186.081 22.9643 185.452 24.5866 184.192 25.7699C182.951 26.9342 181.186 27.5163 178.896 27.5163H174.458V32.0682C174.458 32.908 174.238 33.5665 173.799 34.0436C173.361 34.5017 172.702 34.7307 171.824 34.7307ZM174.458 23.4797H177.979C178.972 23.4797 179.735 23.2697 180.27 22.8498C180.804 22.4108 181.071 21.7619 181.071 20.9031C181.071 20.0251 180.804 19.3762 180.27 18.9563C179.735 18.5365 178.972 18.3265 177.979 18.3265H174.458V23.4797ZM194.893 34.7307C194.282 34.7307 193.767 34.578 193.346 34.2726C192.927 33.9672 192.669 33.5569 192.574 33.0416C192.478 32.5072 192.593 31.906 192.917 31.238L194.778 27.5163V28.9763L187.764 17.4104C187.421 16.8378 187.287 16.2939 187.363 15.7786C187.439 15.2442 187.688 14.8243 188.108 14.5189C188.547 14.1945 189.1 14.0322 189.768 14.0322C190.455 14.0322 190.97 14.204 191.314 14.5475C191.677 14.872 192.03 15.3396 192.373 15.9503L197.326 24.3099H196.467L200.647 15.979C200.895 15.4827 201.2 15.0342 201.563 14.6334C201.945 14.2326 202.517 14.0322 203.281 14.0322C203.891 14.0322 204.407 14.1849 204.827 14.4903C205.266 14.7766 205.533 15.1869 205.628 15.7213C205.743 16.2366 205.619 16.8378 205.256 17.5249L197.555 32.7839C197.326 33.2611 197.011 33.7096 196.61 34.1295C196.228 34.5303 195.656 34.7307 194.893 34.7307ZM210.657 34.7307C209.818 34.7307 209.169 34.5017 208.71 34.0436C208.253 33.5665 208.024 32.8984 208.024 32.0396V17.0096C208.024 16.1317 208.253 15.4636 208.71 15.0056C209.188 14.5284 209.875 14.2899 210.772 14.2899H223.912C224.81 14.2899 225.487 14.5284 225.945 15.0056C226.422 15.4636 226.661 16.1317 226.661 17.0096V32.0396C226.661 32.8984 226.432 33.5665 225.974 34.0436C225.535 34.5017 224.886 34.7307 224.027 34.7307C223.187 34.7307 222.538 34.5017 222.08 34.0436C221.622 33.5665 221.393 32.8984 221.393 32.0396V18.5841H213.291V32.0396C213.291 32.8984 213.072 33.5665 212.633 34.0436C212.194 34.5017 211.535 34.7307 210.657 34.7307ZM232.968 34.7307C232.128 34.7307 231.479 34.5017 231.021 34.0436C230.563 33.5665 230.334 32.8984 230.334 32.0396V17.0096C230.334 16.1317 230.563 15.4636 231.021 15.0056C231.498 14.5284 232.185 14.2899 233.082 14.2899H246.223C247.119 14.2899 247.797 14.5284 248.255 15.0056C248.732 15.4636 248.971 16.1317 248.971 17.0096V32.0396C248.971 32.8984 248.742 33.5665 248.284 34.0436C247.845 34.5017 247.196 34.7307 246.337 34.7307C245.497 34.7307 244.848 34.5017 244.39 34.0436C243.932 33.5665 243.703 32.8984 243.703 32.0396V18.5841H235.601V32.0396C235.601 32.8984 235.382 33.5665 234.943 34.0436C234.504 34.5017 233.845 34.7307 232.968 34.7307Z" fill="white"/>
</g>
<defs>
<clipPath id="clip0_338_783">
<rect width="249" height="49.4724" fill="white"/>
</clipPath>
</defs>
</svg>
