<svg width="42" height="43" viewBox="0 0 42 43" fill="none" xmlns="http://www.w3.org/2000/svg">
<path d="M37.8127 16.8127C36.1679 16.8127 34.7638 17.8621 34.2343 19.3265H31.086C30.859 17.5247 30.1579 15.8314 29.044 14.3963L31.2687 12.1715C32.6763 12.8513 34.4826 12.5453 35.5778 11.4173C37.9639 9.06199 36.2391 4.89624 32.8882 4.92436C30.1202 4.87998 28.2544 7.91954 29.446 10.3461L27.2201 12.572C25.7861 11.4585 24.0929 10.7566 22.2898 10.5293V7.38185C26.2389 5.89397 25.2741 0.0794542 20.9998 0C16.725 0.0797982 15.7614 5.89475 19.7101 7.38185V10.5305C17.8699 10.765 16.182 11.4924 14.7833 12.5756L12.5538 10.346C13.7449 7.91954 11.8797 4.87955 9.11138 4.92427C5.76055 4.89649 4.0356 9.06199 6.42198 11.4173C7.51688 12.5451 9.3236 12.8515 10.7311 12.1715L12.9588 14.3992C11.8744 15.7979 11.1466 17.486 10.9126 19.3264H7.76548C6.2776 15.3771 0.462999 16.342 0.383545 20.6163C0.463343 24.8911 6.27838 25.8548 7.76548 21.9061H10.9117C11.1253 23.602 11.7608 25.2061 12.7807 26.6037C12.8383 26.6827 12.8947 26.7621 12.9499 26.8421L10.7312 29.061C9.32352 28.3812 7.51714 28.6873 6.42206 29.8152C4.03594 32.1705 5.76072 36.3363 9.11164 36.3082C11.8797 36.3526 13.7454 33.313 12.5539 30.8864L14.1944 29.2459C14.5153 30.1322 14.709 31.0527 14.7691 31.9881H27.2305C27.2924 31.0477 27.4859 30.1208 27.8001 29.2404L29.4462 30.8864C28.255 33.313 30.1201 36.3529 32.8886 36.3082C36.2394 36.3359 37.9643 32.1704 35.578 29.8151C34.4831 28.6874 32.6763 28.381 31.2689 29.061L29.0463 26.8384C29.0862 26.7821 29.1268 26.7262 29.1679 26.6708C30.2172 25.2574 30.8695 23.6301 31.0864 21.9061H34.2345C35.7229 25.8559 41.5369 24.8899 41.6164 20.6161C41.6162 18.519 39.91 16.8127 37.8127 16.8127Z" fill="#3F784B"/>
<path d="M25.3396 34.9453C26.36 34.9453 27.1873 35.7725 27.1873 36.793C27.1873 37.0988 27.1117 37.3866 26.9802 37.6406C26.9837 37.6884 26.9842 37.7363 26.9802 37.7842C26.4007 44.6996 15.7152 44.7406 15.0291 37.8916C15.0216 37.8174 15.0234 37.7431 15.033 37.6699C14.892 37.409 14.8123 37.1103 14.8123 36.793C14.8123 35.7725 15.6395 34.9453 16.6599 34.9453H25.3396Z" fill="#3F784B"/>
</svg>
