<svg width="20" height="20" viewBox="0 0 20 20" fill="none" xmlns="http://www.w3.org/2000/svg">
<path d="M10 0C15.5228 0 20 4.47715 20 10C20 15.5228 15.5228 20 10 20C4.47715 20 0 15.5228 0 10C0 4.47715 4.47715 0 10 0ZM14.877 6.61719C14.3778 6.26619 13.7044 6.2836 13.2256 6.64453L13.126 6.72656L13.1172 6.73438L13.1094 6.74316L13.0342 6.81836L13.0264 6.82715L8.98145 11.3516L6.97363 9.10449L6.95801 9.08887L6.89062 9.02051L6.88281 9.0127L6.87402 9.00488L6.77441 8.92188C6.29545 8.56089 5.62218 8.5442 5.12305 8.89551L5.01758 8.97559C4.47832 9.43774 4.3942 10.2193 4.80078 10.7793L4.80664 10.7881L4.81348 10.7959L4.87109 10.8691L4.87988 10.8779L4.8877 10.8867L7.6123 13.9375C8.3368 14.7483 9.62796 14.7481 10.3525 13.9375L15.1123 8.60938L15.1211 8.60059L15.1289 8.59082L15.1865 8.51953L15.1934 8.51074L15.1992 8.50195C15.5802 7.97705 15.5301 7.25767 15.0781 6.78906L14.9824 6.69922L14.9814 6.69824L14.877 6.61719Z" fill="#3F784B"/>
</svg>
