<svg width="41" height="32" viewBox="0 0 41 32" fill="none" xmlns="http://www.w3.org/2000/svg">
<path d="M7.02857 2.28363C8.02251 0.929651 9.12294 0.181396 10.3299 0.0388694C11.5368 -0.103653 12.5662 0.145766 13.4182 0.787126C14.3411 1.35723 14.8381 2.248 14.9091 3.45946C15.0511 4.67092 14.5541 5.95364 13.4182 7.30762C11.7853 9.2317 10.6848 11.1558 10.1169 13.0799C9.54892 15.004 9.26494 16.7142 9.26494 18.2108L8.83896 13.935C11.6788 13.935 13.9861 14.7545 15.761 16.3936C17.5359 18.0326 18.4234 20.2417 18.4234 23.021C18.4234 25.6577 17.6069 27.8312 15.974 29.5415C14.3411 31.1805 12.1048 32 9.26494 32C6.35411 32 4.08225 31.038 2.44935 29.1139C0.81645 27.1185 0 24.3749 0 20.8831C0 19.0303 0.177489 17.1418 0.532467 15.2177C0.887446 13.2224 1.5619 11.1914 2.55584 9.12481C3.62078 6.98694 5.11169 4.70655 7.02857 2.28363ZM29.6052 2.28363C30.5991 0.929651 31.6996 0.181396 32.9065 0.0388694C34.1134 -0.103653 35.1429 0.145766 35.9948 0.787126C36.9178 1.35723 37.4147 2.248 37.4857 3.45946C37.6277 4.67092 37.1307 5.95364 35.9948 7.30762C34.3619 9.2317 33.2615 11.1558 32.6935 13.0799C32.1255 15.004 31.8416 16.7142 31.8416 18.2108L31.4156 13.935C34.2554 13.935 36.5628 14.7545 38.3377 16.3936C40.1126 18.0326 41 20.2417 41 23.021C41 25.6577 40.1836 27.8312 38.5507 29.5415C36.9178 31.1805 34.6814 32 31.8416 32C28.9307 32 26.6589 31.038 25.026 29.1139C23.3931 27.1185 22.5766 24.3749 22.5766 20.8831C22.5766 19.0303 22.7541 17.1418 23.1091 15.2177C23.4641 13.2224 24.1385 11.1914 25.1325 9.12481C26.1974 6.98694 27.6883 4.70655 29.6052 2.28363Z" fill="#3F784B"/>
</svg>
