<svg width="22" height="20" viewBox="0 0 22 20" fill="none" xmlns="http://www.w3.org/2000/svg">
<path d="M21.9578 4.12891L14.2413 11.7816C13.3809 12.6328 12.2153 13.1108 11 13.1108C9.78474 13.1108 8.61908 12.6328 7.75867 11.7816L0.0421667 4.12891C0.0293333 4.27254 0 4.40254 0 4.54527V15.4544C0.00145554 16.6594 0.484808 17.8148 1.34403 18.6669C2.20326 19.519 3.3682 19.9984 4.58333 19.9998H17.4167C18.6318 19.9984 19.7967 19.519 20.656 18.6669C21.5152 17.8148 21.9985 16.6594 22 15.4544V4.54527C22 4.40254 21.9707 4.27254 21.9578 4.12891Z" fill="#3F784B"/>
<path d="M12.9453 10.4964L21.3181 2.19182C20.9125 1.52483 20.3405 0.972761 19.6571 0.588846C18.9738 0.20493 18.2022 0.00212788 17.4168 0H4.58346C3.79808 0.00212788 3.02651 0.20493 2.34315 0.588846C1.6598 0.972761 1.08773 1.52483 0.682129 2.19182L9.05496 10.4964C9.57157 11.0066 10.271 11.2932 11.0001 11.2932C11.7293 11.2932 12.4287 11.0066 12.9453 10.4964Z" fill="#3F784B"/>
</svg>
