<svg width="22" height="26" viewBox="0 0 22 26" fill="none" xmlns="http://www.w3.org/2000/svg">
<path fill-rule="evenodd" clip-rule="evenodd" d="M21.4 10.4C21.4 4.654 16.746 0 11 0C5.254 0 0.599998 4.654 0.599998 10.4C0.599998 10.595 0.599998 10.777 0.612998 10.972C0.781998 15.587 3.2 20.878 9.882 25.649C10.545 26.117 11.455 26.117 12.118 25.649C18.8 20.878 21.218 15.587 21.387 10.972C21.4 10.777 21.4 10.595 21.4 10.4ZM13.7573 13.1573C14.4892 12.4267 14.9 11.4348 14.9 10.4C14.9 9.3652 14.4879 8.3746 13.7573 7.6427C13.0267 6.9108 12.0348 6.5 11 6.5C9.9652 6.5 8.9746 6.9121 8.2427 7.6427C7.5108 8.3733 7.1 9.3652 7.1 10.4C7.1 11.4348 7.5108 12.4267 8.2427 13.1573C8.9733 13.8892 9.9652 14.3 11 14.3C12.0335 14.3 13.0254 13.8892 13.7573 13.1573Z" fill="#3F784B"/>
</svg>
