<svg width="20" height="20" viewBox="0 0 20 20" fill="none" xmlns="http://www.w3.org/2000/svg">
<path d="M18.4856 18.4674L19.2451 17.5935C19.7285 17.1093 20 16.4537 20 15.7701C20 15.0866 19.7285 14.4309 19.2451 13.9468C19.2192 13.9209 17.2111 12.3788 17.2111 12.3788C16.7292 11.9208 16.089 11.6658 15.4236 11.6667C14.7582 11.6677 14.1187 11.9245 13.638 12.3838L12.0472 13.7218C10.7487 13.1853 9.5691 12.3981 8.57622 11.4052C7.58334 10.4124 6.79672 9.23356 6.26154 7.9364L7.59696 6.35341C8.05744 5.87366 8.31499 5.23522 8.31608 4.57081C8.31717 3.90639 8.06171 3.26711 7.6028 2.78586C7.6028 2.78586 6.05622 0.783795 6.03035 0.757968C5.55415 0.279529 4.9085 0.00731647 4.2329 0.000145342C3.55731 -0.00702579 2.906 0.25142 2.41972 0.719643L1.45989 1.55279C-4.21061 8.1197 8.00009 20.2146 14.7957 19.9971C15.4819 20.0011 16.162 19.8678 16.7957 19.605C17.4295 19.3423 18.0041 18.9555 18.4856 18.4674Z" fill="#3F784B"/>
</svg>
