<svg width="22" height="20" viewBox="0 0 22 20" fill="none" xmlns="http://www.w3.org/2000/svg">
<path d="M21.9994 1.76528C21.9729 2.35365 21.878 2.93224 21.7543 3.50502C21.3632 5.31727 20.98 7.13169 20.5624 8.93777C20.0353 11.218 19.4784 13.491 18.9317 15.767C18.7392 16.5685 18.542 17.3689 18.3419 18.169C18.2672 18.4677 18.1171 18.727 17.8565 18.8999C17.5056 19.1333 17.1282 19.1127 16.7693 18.934C16.559 18.8292 16.377 18.6668 16.1864 18.5247C15.4965 18.0102 14.8189 17.4784 14.1167 16.9814C12.882 16.107 11.6345 15.2507 10.3889 14.3916C9.82954 14.0058 9.26292 13.631 8.69956 13.2507C8.51902 13.1289 8.50996 12.994 8.67346 12.8465C9.67402 11.9445 10.6815 11.0506 11.6741 10.1403C12.8736 9.04001 14.0696 7.9354 15.2503 6.81521C15.9424 6.15868 16.6051 5.47134 17.2739 4.79052C17.4316 4.62993 17.5636 4.44287 17.6999 4.26269C17.7293 4.22354 17.7271 4.16046 17.7394 4.10826C17.6799 4.11116 17.6089 4.09376 17.5629 4.12022C17.1112 4.37616 16.6584 4.63102 16.2154 4.90218C14.8686 5.72692 13.5225 6.55347 12.1823 7.38944C10.345 8.53538 8.51322 9.69001 6.67922 10.841C6.36455 11.0386 6.04916 11.2347 5.73812 11.4377C5.61196 11.52 5.48435 11.5244 5.34949 11.4809C4.26664 11.1292 3.18451 10.7765 2.10202 10.4241C1.56223 10.2483 1.02171 10.075 0.483725 9.89483C0.287964 9.82922 0.132442 9.70596 0.0461616 9.51237C-0.0477316 9.30175 0.000121321 9.06611 0.163981 8.90261C0.331829 8.73549 0.534479 8.62021 0.750179 8.53139C1.79207 8.10361 2.82888 7.66242 3.88019 7.2593C5.95527 6.46356 8.03614 5.68233 10.1199 4.90943C12.3226 4.09267 14.5314 3.2915 16.7385 2.48634C18.0631 2.00309 19.3896 1.5242 20.7161 1.04531C20.939 0.964832 21.1699 0.920604 21.4088 0.929305C21.7319 0.940905 21.9218 1.10477 21.9689 1.4227C21.986 1.5358 21.9889 1.65109 21.9983 1.76528H21.9994Z" fill="#0084FF"/>
</svg>
