<svg width="28" height="26" viewBox="0 0 28 26" fill="none" xmlns="http://www.w3.org/2000/svg">
<g clip-path="url(#clip0_761_301)">
<path d="M15.9013 4.62666H19.1583C20.3428 4.62666 21.9092 5.97929 21.9092 7.1883V8.9904C15.0582 7.76957 8.98271 14.33 10.8423 21.0695H2.58874C1.52082 21.0695 0.115806 19.5851 0.0980641 18.5003C0.294919 14.8884 -0.190881 10.9497 0.0879256 7.37501C0.193534 6.02153 1.42366 4.62666 2.84135 4.62666H6.09832V2.19174C6.09832 2.07769 6.37122 1.47614 6.45148 1.3435C6.91362 0.580578 7.70864 0.132798 8.59322 0.0702775C9.69578 -0.00745046 13.0541 -0.0725054 14.0029 0.168282C14.7709 0.363447 15.9005 1.36039 15.9005 2.19174V4.62666H15.9013ZM13.4985 4.62666V2.57109L13.4039 2.47646H8.59745L8.50282 2.57109V4.62666H13.4985Z" fill="#3F784B"/>
<path d="M19.5562 11.2857C25.472 10.7644 29.6304 16.9598 26.7477 22.209C24.2545 26.7493 17.9915 27.301 14.6374 23.3758C10.8228 18.9123 13.7426 11.7977 19.5562 11.2857ZM19.9955 13.8118C19.6601 13.8693 19.2622 14.2351 19.1574 14.5545C18.9673 15.1324 19.0036 17.9711 19.0611 18.7003C19.0924 19.0957 19.1659 19.3669 19.4109 19.6786C19.6931 20.0377 20.864 21.2213 21.2189 21.4748C22.1803 22.1617 23.4443 21.2737 23.0928 20.1695C22.847 19.3964 21.8838 18.963 21.48 18.3049C21.3803 17.182 21.567 15.9451 21.469 14.8375C21.4005 14.0552 20.7373 13.6851 19.9955 13.8118Z" fill="#3F784B"/>
</g>
<defs>
<clipPath id="clip0_761_301">
<rect width="27.6847" height="26" fill="white"/>
</clipPath>
</defs>
</svg>
