<svg width="20" height="20" viewBox="0 0 20 20" fill="none" xmlns="http://www.w3.org/2000/svg">
<g clip-path="url(#clip0_338_761)">
<path d="M19.9997 9.97175C19.9664 10.4435 19.9469 10.8952 19.8974 11.3437C19.8665 11.6248 19.7984 11.9036 19.7328 12.1795C19.6529 12.5159 19.5801 12.8571 19.4645 13.1816C19.3175 13.5933 19.1495 14.0002 18.9545 14.3915C18.7414 14.8184 18.5068 15.2387 18.2433 15.6361C18.0101 15.9883 17.7356 16.3152 17.4583 16.6349C17.0815 17.069 16.6719 17.4741 16.21 17.8172C15.8003 18.1212 15.3817 18.4162 14.9435 18.6759C14.5572 18.9046 14.1457 19.0947 13.7323 19.272C13.4012 19.4135 13.0539 19.5217 12.7076 19.6227C12.3941 19.7142 12.0739 19.7842 11.7537 19.8495C11.5572 19.8896 11.3541 19.8957 11.1562 19.9301C10.562 20.033 9.96352 19.9944 9.36695 19.9868C9.09245 19.9834 8.81795 19.9253 8.54393 19.8881C8.36838 19.8643 8.19331 19.839 8.01966 19.8047C7.8189 19.7652 7.61814 19.7223 7.42118 19.668C7.16762 19.5979 6.91262 19.5279 6.66667 19.435C6.35363 19.3168 6.04678 19.1814 5.74231 19.0423C5.5268 18.9437 5.32318 18.8198 5.10862 18.7197C5.05106 18.693 4.9659 18.6935 4.90406 18.714C4.58293 18.8212 4.26609 18.9418 3.9464 19.0528C3.69711 19.1395 3.44545 19.2172 3.19568 19.303C2.85696 19.4192 2.52014 19.5403 2.18189 19.6575C1.92118 19.748 1.65953 19.8348 1.39835 19.9248C1.35791 19.9386 1.32176 19.972 1.28132 19.9777C1.23374 19.9844 1.17808 19.9815 1.13622 19.961C1.11719 19.952 1.11243 19.8891 1.11909 19.8538C1.17475 19.556 1.23279 19.2586 1.29321 18.9613C1.34649 18.7002 1.40691 18.4405 1.45734 18.1784C1.50587 17.9268 1.54345 17.6733 1.59055 17.4217C1.62004 17.2635 1.66096 17.1072 1.69283 16.949C1.7228 16.8022 1.74659 16.6545 1.77466 16.5077C1.80653 16.3414 1.83365 16.1737 1.87504 16.0093C1.90073 15.9078 1.8798 15.8358 1.82128 15.7467C1.61624 15.437 1.40834 15.1263 1.23565 14.7979C1.01919 14.3858 0.822231 13.9621 0.644305 13.5318C0.525846 13.2454 0.452107 12.94 0.364096 12.6412C0.305104 12.4411 0.242307 12.2409 0.204248 12.0365C0.145732 11.722 0.0924497 11.4051 0.0639054 11.0873C0.0272736 10.678 -0.0107854 10.2653 0.00205954 9.85548C0.0182346 9.34608 0.0677113 8.83621 0.137169 8.3311C0.188073 7.96084 0.274657 7.59249 0.380747 7.23367C0.620994 6.42454 0.94735 5.64972 1.3798 4.92208C1.75943 4.28306 2.20282 3.6917 2.71091 3.14942C3.13765 2.69435 3.60387 2.28549 4.10625 1.91476C4.68427 1.48828 5.29749 1.12517 5.95829 0.847357C6.33841 0.687723 6.72661 0.542385 7.12052 0.421349C7.51062 0.301742 7.91024 0.210251 8.31034 0.127336C8.54868 0.0782547 8.79511 0.0582408 9.03869 0.0458513C9.51633 0.0220254 9.99445 0.00296458 10.4721 -0.000371059C10.7361 -0.00227714 11.0025 0.0191662 11.2637 0.0563348C11.5986 0.104463 11.9321 0.16927 12.2618 0.245036C12.5568 0.312702 12.8513 0.390375 13.1367 0.489491C13.8284 0.729657 14.4935 1.03082 15.1215 1.41013C15.9711 1.92334 16.7285 2.54901 17.3945 3.28666C17.9174 3.86563 18.3698 4.49321 18.7442 5.17797C19.0154 5.67402 19.258 6.18342 19.4269 6.7238C19.5525 7.1255 19.6776 7.52911 19.7704 7.9394C19.8432 8.262 19.8741 8.59509 19.9102 8.92532C19.9488 9.27937 19.9716 9.63485 19.9997 9.97175ZM3.17618 17.6251C3.24516 17.608 3.29036 17.6004 3.33317 17.5851C3.47447 17.5341 3.61386 17.4779 3.75515 17.4283C4.15953 17.2863 4.56343 17.1424 4.97019 17.008C5.09102 16.968 5.21043 16.9099 5.34887 17.0052C5.75039 17.2801 6.17237 17.5227 6.62385 17.7061C6.96686 17.8453 7.31367 17.9782 7.66476 18.094C7.86838 18.1612 8.08389 18.1965 8.29607 18.2346C8.62956 18.2946 8.96305 18.3666 9.29987 18.3938C9.66238 18.4233 10.0282 18.4095 10.3931 18.41C10.5235 18.41 10.6552 18.4061 10.7842 18.389C11.0225 18.3575 11.2599 18.3194 11.4964 18.2765C11.7199 18.236 11.9464 18.2003 12.1638 18.1369C12.4426 18.0559 12.7171 17.9577 12.9878 17.852C13.2742 17.74 13.5672 17.6347 13.8327 17.4836C14.2575 17.2415 14.6738 16.9809 15.0725 16.6978C15.6238 16.3066 16.0986 15.8258 16.5206 15.2983C16.7452 15.0176 16.9626 14.7269 17.1415 14.4163C17.3769 14.0069 17.581 13.5781 17.7799 13.1487C17.8855 12.9209 17.9592 12.6774 18.0344 12.4373C18.101 12.2243 18.1548 12.0065 18.2057 11.7887C18.2376 11.6543 18.2556 11.5171 18.277 11.3808C18.3122 11.1588 18.3612 10.9377 18.3746 10.7142C18.3945 10.3858 18.3926 10.0556 18.3926 9.72635C18.3926 9.54813 18.3855 9.36896 18.3655 9.19217C18.3394 8.96487 18.3008 8.73852 18.2609 8.51313C18.2204 8.28535 18.1857 8.05471 18.1229 7.83313C18.0411 7.54674 17.944 7.26369 17.8346 6.98636C17.7142 6.68234 17.5905 6.37689 17.435 6.0905C17.2485 5.74741 17.0415 5.41289 16.8151 5.09458C16.5958 4.78579 16.3627 4.48034 16.0963 4.21206C15.7542 3.86754 15.3874 3.54303 15.0044 3.24473C14.6971 3.00504 14.3608 2.79775 14.0182 2.61096C13.6662 2.41939 13.2965 2.25452 12.9236 2.10727C12.621 1.98767 12.3037 1.90237 11.9883 1.81946C11.7604 1.75942 11.5258 1.72034 11.2927 1.6846C11.0163 1.64219 10.739 1.5912 10.4607 1.58215C9.99064 1.56738 9.51919 1.5507 9.05106 1.62837C8.8484 1.66173 8.63955 1.66316 8.44069 1.70986C8.08198 1.7942 7.72708 1.89475 7.37456 2.00149C7.1267 2.0763 6.87837 2.15826 6.64145 2.26262C6.13432 2.48563 5.65192 2.75725 5.19759 3.07509C4.46876 3.58449 3.83079 4.19205 3.29226 4.90016C2.69521 5.68451 2.25468 6.55273 1.95449 7.49004C1.86743 7.76213 1.81795 8.04709 1.75515 8.32681C1.72661 8.45356 1.70235 8.58127 1.68474 8.70993C1.64906 8.97154 1.5934 9.2341 1.5934 9.49619C1.5934 10.0308 1.61957 10.5655 1.64526 11.0997C1.65287 11.2564 1.68998 11.4127 1.72423 11.5671C1.77466 11.794 1.82746 12.0208 1.89264 12.2438C1.97447 12.523 2.05059 12.8061 2.16381 13.0729C2.31747 13.4351 2.49825 13.7863 2.67808 14.1365C2.90311 14.5749 3.20044 14.9666 3.50777 15.3498C3.5601 15.4146 3.58246 15.4689 3.56628 15.5528C3.49159 15.9373 3.42594 16.3233 3.35268 16.7078C3.32271 16.866 3.27704 17.0209 3.24611 17.1786C3.219 17.3168 3.20235 17.4574 3.17666 17.6256L3.17618 17.6251Z" fill="#00B309"/>
<path d="M6.42937 5.00098C6.60825 5.0248 6.78808 5.04434 6.96648 5.07341C7.19388 5.1101 7.32138 5.26687 7.40653 5.46558C7.62728 5.98118 7.84659 6.49725 8.06448 7.01379C8.13489 7.18058 8.22338 7.34498 8.26048 7.51938C8.31852 7.79147 8.24859 8.04403 8.05401 8.2556C7.88275 8.4424 7.71814 8.63491 7.55021 8.82457C7.42699 8.96371 7.40653 9.25105 7.51167 9.40211C7.8485 9.88673 8.19578 10.3637 8.5954 10.7997C8.99978 11.241 9.44269 11.6332 9.98598 11.8976C10.3547 12.0773 10.7224 12.2593 11.0954 12.4304C11.2291 12.4914 11.3709 12.4795 11.4774 12.3594C11.6349 12.1816 11.789 12.0006 11.9408 11.8181C12.0721 11.6599 12.1939 11.4931 12.3285 11.3377C12.5264 11.1085 12.7781 11.0394 13.0588 11.1814C13.6463 11.4797 14.2391 11.7666 14.8304 12.0578C14.887 12.0859 14.9446 12.1126 15.0031 12.1354C15.2648 12.2379 15.3989 12.4294 15.3623 12.7087C15.3271 12.9736 15.2652 13.2357 15.2096 13.4978C15.1582 13.7403 15.0079 13.9248 14.8357 14.0911C14.467 14.448 14.0512 14.7358 13.5564 14.883C13.1316 15.0093 12.6963 14.9955 12.2638 14.9145C12.0393 14.8726 11.8142 14.8292 11.594 14.7706C11.378 14.7134 11.1634 14.6467 10.9555 14.5647C10.5707 14.4132 10.181 14.2683 9.81329 14.0815C9.39464 13.869 8.99264 13.6222 8.59207 13.3753C8.20244 13.1352 7.86467 12.8273 7.55449 12.4928C7.10492 12.0077 6.65772 11.5207 6.22005 11.0251C5.81805 10.5701 5.47124 10.0726 5.1877 9.53411C4.99169 9.16242 4.8542 8.7731 4.7738 8.35567C4.69578 7.95016 4.62204 7.54797 4.62775 7.13483C4.63251 6.80984 4.69483 6.49772 4.88655 6.22611C5.0778 5.95544 5.26619 5.68145 5.46981 5.41984C5.71101 5.1101 6.02595 4.95475 6.4346 5.03815C6.43318 5.02576 6.43222 5.01337 6.4308 5.00145L6.42937 5.00098Z" fill="#00B309"/>
</g>
<defs>
<clipPath id="clip0_338_761">
<rect width="20" height="20" fill="white"/>
</clipPath>
</defs>
</svg>
