<svg width="37" height="36" viewBox="0 0 37 36" fill="none" xmlns="http://www.w3.org/2000/svg">
<g clip-path="url(#clip0_338_730)">
<path d="M32.9093 15.0965H22.488C22.0092 15.0791 21.6174 14.6873 21.6174 14.2085C21.6174 14.1649 21.6174 14.1127 21.6261 14.0692C21.835 13.4336 24.0377 6.76469 24.177 4.57944C24.4295 2.31584 22.7927 0.278597 20.5291 0.0261185C20.2418 -0.00870617 19.9545 -0.00870617 19.6672 0.0261185C19.0491 0.0348247 18.5093 0.470133 18.37 1.07086C17.8215 3.27352 16.5417 8.44498 11.9361 12.2235C9.48099 14.252 8.87155 16.0455 8.71484 16.6462V33.5971C8.78449 33.806 8.95862 33.9715 9.17627 34.0237C9.95983 34.2065 10.7086 34.4851 11.4225 34.8508C12.9547 35.6256 14.6524 36.0174 16.3676 35.9913H27.6333C31.2899 36.0087 34.4067 33.3359 34.9639 29.7229L36.4962 19.3103C36.7922 17.2992 35.3992 15.4273 33.3881 15.1313C33.2227 15.1052 33.0573 15.0965 32.8919 15.0965H32.9093Z" fill="#3F784B"/>
<path d="M-0.585999 12.6967H4.26334C4.97724 12.6967 5.55185 13.2713 5.55185 13.9852V33.783C5.55185 34.4969 4.97724 35.0715 4.26334 35.0715H-0.585999C-1.2999 35.0541 -1.87451 34.4795 -1.87451 33.7743V13.9765C-1.87451 13.2626 -1.2999 12.688 -0.585999 12.688V12.6967Z" fill="#3F784B"/>
</g>
<defs>
<clipPath id="clip0_338_730">
<rect width="36.5485" height="36" fill="white"/>
</clipPath>
</defs>
</svg>
