<svg width="44" height="44" viewBox="0 0 44 44" fill="none" xmlns="http://www.w3.org/2000/svg">
<path d="M9.74729 23.4144H7.16289V19.5984H0V36.5086H16.9102V19.5984H9.74729V23.4144Z" fill="#3F784B"/>
<path d="M35.1776 23.8632C35.6208 23.8632 36.0579 23.8897 36.4879 23.9396V19.5985H29.792V23.4145H27.2076V19.5985H19.5778V36.5087H23.9418C23.8904 36.072 23.863 35.6281 23.863 35.1778C23.8631 28.9389 28.9388 23.8632 35.1776 23.8632Z" fill="#3F784B"/>
<path d="M26.6575 0H19.4946V3.78323H16.9102V0H9.74731V16.9102H26.6575V0Z" fill="#3F784B"/>
<path d="M35.1776 26.3553C30.313 26.3553 26.3553 30.313 26.3553 35.1777C26.3553 40.0424 30.313 44 35.1776 44C40.0423 44 44 40.0424 44 35.1777C44 30.313 40.0423 26.3553 35.1776 26.3553ZM34.3645 38.5229L31.1278 35.2861L32.9553 33.4587L34.3645 34.8679L37.4001 31.8324L39.2275 33.6599L34.3645 38.5229Z" fill="#3F784B"/>
</svg>
