<svg width="42" height="42" viewBox="0 0 42 42" fill="none" xmlns="http://www.w3.org/2000/svg">
<path d="M39.6441 27.2786L31.235 37.059C29.9833 38.4937 28.1729 39.3176 26.269 39.3189H13.1422L12.0736 40.3915C11.384 41.0838 10.2814 41.1393 9.52563 40.5198L2.42337 34.6982C1.55059 33.9828 1.49104 32.6684 2.29554 31.877L6.58297 27.6594C9.74055 24.542 14.4466 23.5958 18.5634 25.2505L25.569 25.2505C27.0319 25.2505 28.3075 26.3778 28.3514 27.84C28.3969 29.3531 27.184 30.5939 25.6814 30.5939H20.1443C19.6563 30.6273 19.2879 31.0501 19.3213 31.5381C19.3515 31.9796 19.7029 32.331 20.1443 32.3613H26.3932C27.2943 32.3637 28.1532 31.9794 28.752 31.3058L35.4851 23.6115C36.538 22.4994 38.2929 22.4516 39.4048 23.5047C40.4602 24.5043 40.5647 26.1494 39.6441 27.2745V27.2786ZM34.4381 3.91829C34.4381 2.33307 30.4156 1.04999 25.4538 1.04999C20.4919 1.04999 16.4695 2.33307 16.4695 3.91829V6.40167C16.4695 7.9869 20.4919 9.26998 25.4538 9.26998C30.4156 9.26998 34.4381 7.9869 34.4381 6.40167L34.4381 3.91829ZM34.4381 10.5986C34.4375 10.4915 34.4193 10.3852 34.3843 10.284C32.0999 11.4843 28.7148 11.9727 25.4579 11.9727C22.201 11.9727 18.8366 11.4843 16.5315 10.284C16.4965 10.3852 16.4783 10.4915 16.4777 10.5986V13.082C16.4777 14.6672 20.5002 15.9503 25.4621 15.9503C30.4239 15.9503 34.4381 14.6506 34.4381 13.053V10.5986ZM25.4538 22.6016C30.4198 22.6016 34.4381 21.3185 34.4381 19.7333V17.2499C34.4374 17.1428 34.4192 17.0366 34.3843 16.9353C32.0999 18.1356 28.7148 18.624 25.4579 18.624C22.201 18.624 18.8366 18.1356 16.5315 16.9353C16.4965 17.0365 16.4783 17.1428 16.4777 17.2499V19.7333C16.4695 21.3309 20.4919 22.6181 25.4538 22.6181V22.6016Z" fill="#3F784B"/>
</svg>
