<svg width="42" height="36" viewBox="0 0 42 36" fill="none" xmlns="http://www.w3.org/2000/svg">
<path d="M40.9238 20.1419L36.6113 12.9544C36.484 12.7398 36.3031 12.562 36.0864 12.4385C35.8696 12.315 35.6245 12.25 35.375 12.25H26.75V7.9375C26.75 7.55625 26.5986 7.19062 26.329 6.92103C26.0594 6.65145 25.6937 6.5 25.3125 6.5H23.1275C23.6253 7.88315 23.8783 9.34249 23.875 10.8125C23.8741 13.1549 23.2373 15.4531 22.0326 17.462C20.8278 19.4708 19.1002 21.1148 17.0342 22.2187C14.9682 23.3225 12.6412 23.8447 10.3017 23.7296C7.96209 23.6145 5.69766 22.8663 3.75 21.565V30.9375C3.75 31.3187 3.90145 31.6844 4.17103 31.954C4.44062 32.2236 4.80625 32.375 5.1875 32.375H9.75875C10.0609 33.2075 10.6121 33.9268 11.3374 34.4352C12.0626 34.9435 12.9268 35.2162 13.8125 35.2162C14.6982 35.2162 15.5624 34.9435 16.2876 34.4352C17.0129 33.9268 17.5641 33.2075 17.8662 32.375H28.4463C28.7484 33.2075 29.2996 33.9268 30.0249 34.4352C30.7501 34.9435 31.6143 35.2162 32.5 35.2162C33.3857 35.2162 34.2499 34.9435 34.9751 34.4352C35.7004 33.9268 36.2516 33.2075 36.5537 32.375H39.6875C40.0687 32.375 40.4344 32.2236 40.704 31.954C40.9735 31.6844 41.125 31.3187 41.125 30.9375V20.875C41.1249 20.617 41.0554 20.3638 40.9238 20.1419ZM13.8125 32.375C13.5282 32.375 13.2503 32.2907 13.0139 32.1327C12.7775 31.9748 12.5932 31.7503 12.4844 31.4876C12.3756 31.2249 12.3472 30.9359 12.4026 30.6571C12.4581 30.3782 12.595 30.1221 12.796 29.921C12.9971 29.72 13.2532 29.5831 13.5321 29.5276C13.8109 29.4722 14.0999 29.5006 14.3626 29.6094C14.6253 29.7182 14.8498 29.9025 15.0077 30.1389C15.1657 30.3753 15.25 30.6532 15.25 30.9375C15.25 31.3187 15.0985 31.6844 14.829 31.954C14.5594 32.2236 14.1937 32.375 13.8125 32.375ZM32.5 32.375C32.2157 32.375 31.9378 32.2907 31.7014 32.1327C31.465 31.9748 31.2807 31.7503 31.1719 31.4876C31.0631 31.2249 31.0347 30.9359 31.0901 30.6571C31.1456 30.3782 31.2825 30.1221 31.4835 29.921C31.6846 29.72 31.9407 29.5831 32.2196 29.5276C32.4984 29.4722 32.7874 29.5006 33.0501 29.6094C33.3128 29.7182 33.5373 29.9025 33.6952 30.1389C33.8532 30.3753 33.9375 30.6532 33.9375 30.9375C33.9375 31.3187 33.7861 31.6844 33.5165 31.954C33.2469 32.2236 32.8812 32.375 32.5 32.375ZM38.25 22.3125H31.0625C30.6813 22.3125 30.3156 22.1611 30.046 21.8915C29.7764 21.6219 29.625 21.2562 29.625 20.875V16.5625C29.625 16.1813 29.7764 15.8156 30.046 15.546C30.3156 15.2765 30.6813 15.125 31.0625 15.125H34.5556L38.25 21.2775V22.3125Z" fill="#3F784B"/>
<path d="M10.9375 20.875C12.9277 20.875 14.8732 20.2848 16.5279 19.1792C18.1827 18.0735 19.4724 16.5019 20.234 14.6633C20.9956 12.8246 21.1949 10.8013 20.8067 8.84941C20.4184 6.89747 19.46 5.10451 18.0528 3.69724C16.6455 2.28998 14.8525 1.33162 12.9006 0.943353C10.9487 0.555089 8.92543 0.75436 7.08675 1.51597C5.24807 2.27757 3.67652 3.56731 2.57084 5.22208C1.46516 6.87685 0.875 8.82233 0.875 10.8125C0.875 13.4812 1.93515 16.0407 3.82224 17.9278C5.70932 19.8148 8.26876 20.875 10.9375 20.875ZM9.5 6.5C9.5 6.11876 9.65145 5.75312 9.92103 5.48354C10.1906 5.21396 10.5563 5.0625 10.9375 5.0625C11.3187 5.0625 11.6844 5.21396 11.954 5.48354C12.2235 5.75312 12.375 6.11876 12.375 6.5V10.2231L14.8331 12.6669C14.9679 12.8005 15.0748 12.9595 15.1478 13.1347C15.2208 13.3098 15.2583 13.4977 15.2583 13.6875C15.2583 13.8773 15.2208 14.0652 15.1478 14.2403C15.0748 14.4155 14.9679 14.5745 14.8331 14.7081C14.6995 14.8429 14.5405 14.9498 14.3653 15.0228C14.1902 15.0958 14.0023 15.1333 13.8125 15.1333C13.6227 15.1333 13.4348 15.0958 13.2597 15.0228C13.0845 14.9498 12.9255 14.8429 12.7919 14.7081L9.91687 11.8331C9.78365 11.6988 9.67824 11.5395 9.6067 11.3644C9.53517 11.1892 9.49891 11.0017 9.5 10.8125V6.5Z" fill="#3F784B"/>
</svg>
