<svg width="35" height="35" viewBox="0 0 35 35" fill="none" xmlns="http://www.w3.org/2000/svg">
<path d="M25.2932 34.2478C22.7161 34.2547 20.2483 33.2293 18.4299 31.4041L2.05103 15.0183C-0.690186 12.2771 -0.690186 7.82693 2.05103 5.08572C4.79224 2.34451 9.24243 2.34451 11.9836 5.08572L28.4924 21.6013C30.1877 23.2967 30.1877 26.0447 28.4924 27.7332C26.7971 29.4285 24.0491 29.4285 22.3606 27.7332L11.8469 17.2127C11.1223 16.5428 11.0813 15.408 11.7581 14.6834C12.428 13.9588 13.5627 13.9178 14.2874 14.5945C14.3215 14.6219 14.3489 14.656 14.3762 14.6834L24.8967 25.2039C25.1907 25.4978 25.6692 25.4978 25.97 25.2039C26.2639 24.9099 26.2639 24.4246 25.97 24.1306L9.45435 7.60818C8.10767 6.2615 5.927 6.2615 4.58032 7.60818C3.23364 8.95486 3.23364 11.1355 4.58032 12.4822L20.9524 28.8679C23.3518 31.2605 27.2346 31.2605 29.6272 28.8611C32.0198 26.4617 32.0198 22.5789 29.6204 20.1863L13.2551 3.8074C12.5305 3.13748 12.4895 2.00272 13.1663 1.27811C13.8362 0.553496 14.9709 0.512481 15.6956 1.18924C15.7297 1.21658 15.7571 1.25076 15.7844 1.27811L32.1633 17.6638C35.9504 21.451 35.9504 27.617 32.1633 31.4041C30.345 33.2293 27.8704 34.2547 25.2932 34.2478Z" fill="#3F784B"/>
</svg>
