<svg width="44" height="44" viewBox="0 0 44 44" fill="none" xmlns="http://www.w3.org/2000/svg">
<path d="M30.3628 18.2737C30.3678 18.6389 30.1627 18.9741 29.8325 19.1292L25.0952 21.4353C22.4389 22.7309 20.378 25.002 19.3425 27.7683L16.6312 34.9118C16.5011 35.2869 16.1409 35.5321 15.7457 35.522C15.3555 35.517 15.0004 35.2769 14.8603 34.9118L12.174 27.7683C11.1385 25.002 9.07753 22.7309 6.42125 21.4353L1.68394 19.1292C1.21872 18.929 1.00362 18.3838 1.20373 17.9135C1.29878 17.6984 1.46884 17.5284 1.68394 17.4333L6.42125 15.1322C9.07753 13.8316 11.1385 11.5655 12.174 8.79916L14.8603 1.6557C15.1004 1.16547 15.6907 0.960384 16.181 1.20049C16.376 1.30054 16.5361 1.45562 16.6312 1.6557L19.3425 8.79916C20.378 11.5655 22.4389 13.8316 25.0952 15.1322L29.8325 17.4333C30.1577 17.5884 30.3628 17.9135 30.3628 18.2737Z" fill="#3F784B"/>
<path d="M42.3991 33.7859L39.7694 35.0582C38.3567 35.7475 37.2631 36.9475 36.7099 38.4156L35.2206 42.3814C35.1397 42.5942 34.9738 42.7644 34.7567 42.8452C34.3397 43.0069 33.8759 42.7984 33.7142 42.3814L32.2291 38.4156C31.6717 36.9475 30.5781 35.7433 29.1654 35.0539L26.5399 33.7859C26.3782 33.705 26.2506 33.5774 26.1697 33.4157C25.9698 33.0114 26.1357 32.5221 26.5399 32.3178L29.1654 31.0455C30.5781 30.3562 31.6717 29.1562 32.2291 27.6839L33.7142 23.7223C33.7951 23.5521 33.9312 23.4202 34.0972 23.3394C34.5142 23.1309 35.0163 23.3053 35.2206 23.7223L36.7099 27.6839C37.2631 29.1562 38.3567 30.3562 39.7694 31.0455L42.3991 32.3178V32.3221C42.5778 32.4029 42.7182 32.5434 42.7991 32.7221C42.9821 33.1263 42.8034 33.6029 42.3991 33.7859Z" fill="#3F784B"/>
</svg>
