<svg width="40" height="40" viewBox="0 0 40 40" fill="none" xmlns="http://www.w3.org/2000/svg">
<path d="M38.6441 26.2786L30.235 36.059C28.9833 37.4937 27.1729 38.3176 25.269 38.3189H12.1422L11.0736 39.3915C10.384 40.0838 9.28138 40.1393 8.52563 39.5198L1.42337 33.6982C0.550594 32.9828 0.49104 31.6684 1.29554 30.877L5.58297 26.6594C8.74055 23.542 13.4466 22.5958 17.5634 24.2505L24.569 24.2505C26.0319 24.2505 27.3075 25.3778 27.3514 26.84C27.3969 28.3531 26.184 29.5939 24.6814 29.5939H19.1443C18.6563 29.6273 18.2879 30.0501 18.3213 30.5381C18.3515 30.9796 18.7029 31.331 19.1443 31.3613H25.3932C26.2943 31.3637 27.1532 30.9794 27.752 30.3058L34.4851 22.6115C35.538 21.4994 37.2929 21.4516 38.4048 22.5047C39.4602 23.5043 39.5647 25.1494 38.6441 26.2745V26.2786ZM33.4381 2.91829C33.4381 1.33307 29.4156 0.0499878 24.4538 0.0499878C19.4919 0.0499878 15.4695 1.33307 15.4695 2.91829V5.40167C15.4695 6.9869 19.4919 8.26998 24.4538 8.26998C29.4156 8.26998 33.4381 6.9869 33.4381 5.40167L33.4381 2.91829ZM33.4381 9.59858C33.4375 9.4915 33.4193 9.38524 33.3843 9.28402C31.0999 10.4843 27.7148 10.9727 24.4579 10.9727C21.201 10.9727 17.8366 10.4843 15.5315 9.28402C15.4965 9.38522 15.4783 9.49149 15.4777 9.59858V12.082C15.4777 13.6672 19.5002 14.9503 24.4621 14.9503C29.4239 14.9503 33.4381 13.6506 33.4381 12.053V9.59858ZM24.4538 21.6016C29.4198 21.6016 33.4381 20.3185 33.4381 18.7333V16.2499C33.4374 16.1428 33.4192 16.0366 33.3843 15.9353C31.0999 17.1356 27.7148 17.624 24.4579 17.624C21.201 17.624 17.8366 17.1356 15.5315 15.9353C15.4965 16.0365 15.4783 16.1428 15.4777 16.2499V18.7333C15.4695 20.3309 19.4919 21.6181 24.4538 21.6181V21.6016Z" fill="#3F784B"/>
</svg>
