<svg width="249" height="50" viewBox="0 0 249 50" fill="none" xmlns="http://www.w3.org/2000/svg">
<g clip-path="url(#clip0_338_449)">
<path d="M24.41 8.63896e-05C10.2915 0.0565827 -1.0473 12.1073 0.0769772 26.4686C0.997867 38.2481 10.3989 47.8015 22.1671 48.8975C29.7771 49.6095 36.7657 46.8129 41.7035 41.943V45.3895C41.7035 47.4061 43.3419 49.0446 45.359 49.0446C47.3757 49.0446 49.0141 47.4061 49.0141 45.3895V24.9093C49.0141 11.3784 37.9465 -0.05641 24.4156 8.63896e-05H24.41ZM26.3704 41.604C15.427 42.7622 6.24639 33.5815 7.40454 22.6382C8.252 14.6609 14.6587 8.25421 22.636 7.40675C33.5793 6.2486 42.76 15.4292 41.6018 26.3726C40.7544 34.3499 34.3477 40.7565 26.3704 41.604Z" fill="#3D3F44"/>
<path d="M33.4717 25.5364C32.1779 24.7737 30.726 24.3896 29.274 24.3896C27.743 24.3896 26.2063 24.8133 24.8617 25.6664C22.5284 27.1409 19.5623 27.1861 17.0765 25.9884L11.7884 23.4404C11.7093 24.35 11.7263 25.2765 11.8732 26.2652C12.7828 32.3838 17.9917 37.1125 24.1724 37.2707C30.3136 37.4289 35.5112 33.2369 36.9011 27.5534L33.4717 25.5308V25.5364Z" fill="#3F784B"/>
<path d="M27.206 15.5644C28.4659 15.8017 29.5563 14.7169 29.3133 13.4571C29.1777 12.7565 28.6072 12.1803 27.9066 12.0503C26.6467 11.813 25.5563 12.8977 25.7993 14.1576C25.9349 14.8582 26.5055 15.4345 27.206 15.5644Z" fill="#3F784B"/>
<path d="M19.5454 24.0056C22.0935 24.4859 24.2855 22.2995 23.7996 19.7515C23.5285 18.3278 22.3816 17.1809 20.9579 16.9097C18.4099 16.4295 16.2178 18.6159 16.7037 21.1639C16.9749 22.5876 18.1218 23.7345 19.5454 24.0056Z" fill="#3F784B"/>
<path d="M30.5959 20.4571C31.0592 20.4571 31.4321 20.0842 31.4321 19.6209C31.4321 19.1577 31.0592 18.7848 30.5959 18.7848C30.1327 18.7848 29.7598 19.1577 29.7598 19.6209C29.7598 20.0842 30.1327 20.4571 30.5959 20.4571Z" fill="#3F784B"/>
<path d="M62.9537 34.7303C62.3619 34.7303 61.8658 34.5967 61.4651 34.3295C61.0643 34.0433 60.8161 33.6616 60.7207 33.1844C60.6254 32.6882 60.7113 32.1347 60.9784 31.5239L68.1069 16.179C68.4501 15.4347 68.8702 14.8907 69.3662 14.5472C69.8817 14.2037 70.4641 14.0319 71.1126 14.0319C71.7616 14.0319 72.3247 14.2037 72.8019 14.5472C73.298 14.8907 73.7275 15.4347 74.09 16.179L81.2185 31.5239C81.5239 32.1347 81.6291 32.6882 81.5338 33.1844C81.4573 33.6806 81.2185 34.0623 80.8178 34.3295C80.4364 34.5967 79.9592 34.7303 79.3867 34.7303C78.623 34.7303 78.0316 34.5586 77.6115 34.215C77.2108 33.8715 76.8478 33.318 76.5236 32.5546L74.9778 28.9187L76.9818 30.3788H65.1867L67.2191 28.9187L65.6734 32.5546C65.3298 33.318 64.9767 33.8715 64.6142 34.215C64.2513 34.5586 63.6981 34.7303 62.9537 34.7303ZM71.0555 19.7862L67.7346 27.7163L66.9331 26.3422H75.2638L74.4624 27.7163L71.1126 19.7862H71.0555ZM86.4774 34.7303C85.6377 34.7303 84.9887 34.5013 84.5309 34.0433C84.0726 33.5661 83.8437 32.8981 83.8437 32.0393V16.723C83.8437 15.845 84.0726 15.177 84.5309 14.719C84.9887 14.2609 85.6377 14.0319 86.4774 14.0319C87.3364 14.0319 87.9854 14.2609 88.4244 14.719C88.8822 15.177 89.1116 15.845 89.1116 16.723V22.0765H97.4423V16.723C97.4423 15.845 97.6618 15.177 98.1007 14.719C98.559 14.2609 99.2174 14.0319 100.076 14.0319C100.916 14.0319 101.555 14.2609 101.994 14.719C102.452 15.177 102.681 15.845 102.681 16.723V32.0393C102.681 32.8981 102.452 33.5661 101.994 34.0433C101.555 34.5013 100.916 34.7303 100.076 34.7303C99.2174 34.7303 98.559 34.5013 98.1007 34.0433C97.6618 33.5661 97.4423 32.8981 97.4423 32.0393V26.3994H89.1116V32.0393C89.1116 32.8981 88.8921 33.5661 88.4531 34.0433C88.0142 34.5013 87.3558 34.7303 86.4774 34.7303ZM108.64 34.7303C108.297 34.7303 107.981 34.6731 107.695 34.5586C107.409 34.4441 107.161 34.2818 106.951 34.0719C106.76 33.8428 106.607 33.5661 106.493 33.2417C106.397 32.9172 106.35 32.545 106.35 32.1251V16.494C106.35 15.6923 106.56 15.0816 106.98 14.6617C107.399 14.2418 108.01 14.0319 108.811 14.0319C109.613 14.0319 110.215 14.2418 110.615 14.6617C111.035 15.0816 111.245 15.6923 111.245 16.494V26.8575H110.444L119.519 15.5206C119.939 14.9862 120.33 14.6045 120.693 14.3754C121.074 14.1464 121.59 14.0319 122.238 14.0319C122.677 14.0319 123.05 14.1273 123.355 14.3182C123.679 14.509 123.928 14.7858 124.099 15.1484C124.271 15.492 124.357 15.9023 124.357 16.3794V32.2397C124.357 33.0603 124.147 33.6806 123.727 34.1005C123.326 34.5204 122.725 34.7303 121.923 34.7303C121.122 34.7303 120.511 34.5204 120.091 34.1005C119.69 33.6806 119.49 33.0603 119.49 32.2397V21.8761H120.263L111.216 33.2417C110.797 33.7569 110.405 34.1387 110.043 34.3868C109.699 34.6158 109.232 34.7303 108.64 34.7303ZM130.679 34.7303C129.839 34.7303 129.19 34.5013 128.732 34.0433C128.274 33.5661 128.045 32.9076 128.045 32.0679V16.6943C128.045 15.8164 128.274 15.1579 128.732 14.719C129.19 14.2609 129.839 14.0319 130.679 14.0319C131.537 14.0319 132.186 14.2609 132.625 14.719C133.084 15.1579 133.312 15.8164 133.312 16.6943V22.3628H135.746L135.001 22.8781L139.468 15.3774C139.83 14.7858 140.26 14.3945 140.756 14.2037C141.252 13.9937 141.739 13.946 142.216 14.0605C142.712 14.175 143.132 14.4136 143.475 14.7762C143.838 15.1197 144.048 15.5587 144.106 16.0931C144.163 16.6085 144 17.1715 143.618 17.7822L139.697 23.966L137.578 22.5632C138.914 22.8113 140.021 23.2884 140.899 23.9946C141.796 24.7008 142.579 25.7314 143.247 27.0865L145.165 31.0086C145.508 31.7148 145.613 32.3351 145.48 32.8695C145.365 33.4039 145.098 33.8333 144.678 34.1578C144.258 34.4822 143.781 34.6731 143.247 34.7303C142.712 34.7876 142.197 34.6826 141.701 34.4154C141.204 34.1482 140.813 33.7093 140.527 33.0985L138.58 28.8042C138.217 28.0217 137.769 27.4682 137.234 27.1438C136.7 26.8193 136.013 26.6571 135.173 26.6571H133.312V32.0679C133.312 32.9076 133.093 33.5661 132.654 34.0433C132.215 34.5013 131.557 34.7303 130.679 34.7303Z" fill="#3D3F44"/>
<path d="M155.246 34.7303C154.405 34.7303 153.757 34.5013 153.299 34.0433C152.841 33.5661 152.611 32.9076 152.611 32.0679V17.0092C152.611 16.1313 152.841 15.4633 153.299 15.0052C153.776 14.5281 154.454 14.2896 155.331 14.2896H164.951C165.657 14.2896 166.191 14.4709 166.554 14.8335C166.935 15.1961 167.126 15.7305 167.126 16.4367C167.126 17.1238 166.935 17.6582 166.554 18.0399C166.191 18.4025 165.657 18.5838 164.951 18.5838H157.879V32.0679C157.879 32.9076 157.66 33.5661 157.221 34.0433C156.782 34.5013 156.123 34.7303 155.246 34.7303ZM171.824 34.7303C170.984 34.7303 170.335 34.5013 169.878 34.0433C169.419 33.5661 169.19 32.9076 169.19 32.0679V16.952C169.19 16.0931 169.419 15.4347 169.878 14.9766C170.354 14.5186 171.013 14.2896 171.853 14.2896H178.896C181.186 14.2896 182.951 14.8812 184.192 16.0645C185.452 17.2288 186.081 18.8415 186.081 20.9028C186.081 22.964 185.452 24.5863 184.192 25.7696C182.951 26.9339 181.186 27.516 178.896 27.516H174.458V32.0679C174.458 32.9076 174.238 33.5661 173.799 34.0433C173.361 34.5013 172.702 34.7303 171.824 34.7303ZM174.458 23.4793H177.979C178.972 23.4793 179.735 23.2694 180.27 22.8495C180.804 22.4105 181.071 21.7616 181.071 20.9028C181.071 20.0248 180.804 19.3759 180.27 18.956C179.735 18.5361 178.972 18.3262 177.979 18.3262H174.458V23.4793ZM194.893 34.7303C194.282 34.7303 193.767 34.5777 193.346 34.2723C192.927 33.9669 192.669 33.5566 192.574 33.0413C192.478 32.5069 192.593 31.9056 192.917 31.2377L194.778 27.516V28.976L187.764 17.4101C187.421 16.8375 187.287 16.2936 187.363 15.7782C187.439 15.2438 187.688 14.824 188.108 14.5186C188.547 14.1941 189.1 14.0319 189.768 14.0319C190.455 14.0319 190.97 14.2037 191.314 14.5472C191.677 14.8717 192.03 15.3393 192.373 15.95L197.326 24.3096H196.467L200.647 15.9786C200.895 15.4824 201.2 15.0339 201.563 14.6331C201.945 14.2323 202.517 14.0319 203.281 14.0319C203.891 14.0319 204.407 14.1846 204.827 14.4899C205.266 14.7762 205.533 15.1866 205.628 15.721C205.743 16.2363 205.619 16.8375 205.256 17.5246L197.555 32.7836C197.326 33.2607 197.011 33.7093 196.61 34.1292C196.228 34.5299 195.656 34.7303 194.893 34.7303ZM210.657 34.7303C209.818 34.7303 209.169 34.5013 208.71 34.0433C208.253 33.5661 208.024 32.8981 208.024 32.0393V17.0092C208.024 16.1313 208.253 15.4633 208.71 15.0052C209.188 14.5281 209.875 14.2896 210.772 14.2896H223.912C224.81 14.2896 225.487 14.5281 225.945 15.0052C226.422 15.4633 226.661 16.1313 226.661 17.0092V32.0393C226.661 32.8981 226.432 33.5661 225.974 34.0433C225.535 34.5013 224.886 34.7303 224.027 34.7303C223.187 34.7303 222.538 34.5013 222.08 34.0433C221.622 33.5661 221.393 32.8981 221.393 32.0393V18.5838H213.291V32.0393C213.291 32.8981 213.072 33.5661 212.633 34.0433C212.194 34.5013 211.535 34.7303 210.657 34.7303ZM232.968 34.7303C232.128 34.7303 231.479 34.5013 231.021 34.0433C230.563 33.5661 230.334 32.8981 230.334 32.0393V17.0092C230.334 16.1313 230.563 15.4633 231.021 15.0052C231.498 14.5281 232.185 14.2896 233.082 14.2896H246.223C247.119 14.2896 247.797 14.5281 248.255 15.0052C248.732 15.4633 248.971 16.1313 248.971 17.0092V32.0393C248.971 32.8981 248.742 33.5661 248.284 34.0433C247.845 34.5013 247.196 34.7303 246.337 34.7303C245.497 34.7303 244.848 34.5013 244.39 34.0433C243.932 33.5661 243.703 32.8981 243.703 32.0393V18.5838H235.601V32.0393C235.601 32.8981 235.382 33.5661 234.943 34.0433C234.504 34.5013 233.845 34.7303 232.968 34.7303Z" fill="#3D3F44"/>
</g>
<defs>
<clipPath id="clip0_338_449">
<rect width="249" height="49.4724" fill="white"/>
</clipPath>
</defs>
</svg>
