<?xml version="1.0" encoding="utf-8"?><svg viewBox="0 0 39 39" xmlns="http://www.w3.org/2000/svg" xmlns:xlink="http://www.w3.org/1999/xlink"><style>:root>svg{display:none}:root>svg:target{display:block}</style><svg viewBox="0 0 39 39" id="close" xmlns="http://www.w3.org/2000/svg"><rect x="1.5" y="1.5" width="36" height="36" rx="18" stroke-width="3"/><path d="M24.146 13.778a1.244 1.244 0 011.75 1.75l-.085.094-4.215 4.214 4.216 4.217.085.093a1.244 1.244 0 010 1.57l-.084.095a1.244 1.244 0 01-1.665.085l-.094-.085-4.216-4.216-4.216 4.216a1.243 1.243 0 01-1.663.085l-.095-.085a1.243 1.243 0 010-1.758l4.216-4.216-4.215-4.215a1.244 1.244 0 010-1.758l.095-.086a1.244 1.244 0 011.664.086l4.214 4.214 4.215-4.214.093-.086z"/></svg><svg viewBox="0 0 22 20" id="email" xmlns="http://www.w3.org/2000/svg"><path d="M21.958 4.129l-7.717 7.653A4.609 4.609 0 0111 13.11a4.61 4.61 0 01-3.241-1.33L.042 4.13C.03 4.273 0 4.403 0 4.545v10.91a4.532 4.532 0 001.344 3.212A4.608 4.608 0 004.584 20h12.833a4.608 4.608 0 003.239-1.333A4.532 4.532 0 0022 15.454V4.545c0-.142-.03-.272-.042-.416z"/><path d="M12.945 10.496l8.373-8.304a4.553 4.553 0 00-1.66-1.603A4.6 4.6 0 0017.416 0H4.583a4.6 4.6 0 00-2.24.589 4.553 4.553 0 00-1.66 1.603l8.372 8.304a2.769 2.769 0 003.89 0z"/></svg><svg viewBox="0 0 20 20" id="phone" xmlns="http://www.w3.org/2000/svg"><path d="M18.486 18.467l.76-.873a2.58 2.58 0 000-3.647 467.783 467.783 0 00-2.035-1.568 2.59 2.59 0 00-3.573.005l-1.59 1.338a10.671 10.671 0 01-5.786-5.786l1.335-1.583a2.58 2.58 0 00.006-3.567S6.056.784 6.03.758A2.575 2.575 0 002.42.72l-.96.833C-4.21 8.12 8 20.215 14.796 19.997a5.143 5.143 0 003.69-1.53z"/></svg><svg viewBox="0 0 22 20" id="telegram" xmlns="http://www.w3.org/2000/svg"><path d="M22 1.765a10.472 10.472 0 01-.246 1.74c-.39 1.812-.774 3.627-1.192 5.433-.527 2.28-1.084 4.553-1.63 6.829-.193.802-.39 1.602-.59 2.402-.075.299-.225.558-.485.73-.351.234-.729.214-1.088.035-.21-.105-.392-.267-.583-.41-.69-.514-1.367-1.046-2.07-1.543-1.234-.874-2.482-1.73-3.727-2.59-.56-.385-1.126-.76-1.69-1.14-.18-.122-.189-.257-.026-.404 1.001-.902 2.008-1.796 3.001-2.707 1.2-1.1 2.396-2.205 3.576-3.325.692-.656 1.355-1.344 2.024-2.024.158-.161.29-.348.426-.528.03-.04.027-.103.04-.155-.06.003-.131-.014-.177.012-.452.256-.905.511-1.348.782a574.691 574.691 0 00-4.033 2.487C10.345 8.535 8.513 9.69 6.68 10.841c-.314.198-.63.394-.94.597a.428.428 0 01-.39.043l-3.247-1.057c-.54-.176-1.08-.349-1.618-.53a.7.7 0 01-.438-.382.54.54 0 01.118-.61c.168-.167.37-.282.586-.37 1.042-.428 2.079-.87 3.13-1.273a606.49 606.49 0 016.24-2.35c2.203-.816 4.411-1.617 6.618-2.423 1.325-.483 2.652-.962 3.978-1.44.223-.081.454-.125.693-.117.323.012.513.176.56.494.017.113.02.228.03.342z"/></svg><svg viewBox="0 0 20 20" id="whatsapp" xmlns="http://www.w3.org/2000/svg"><g clip-path="url(#eclip0_338_761)"><path d="M20 9.972c-.034.472-.053.923-.103 1.372-.03.28-.099.56-.164.836-.08.336-.153.677-.268 1.002-.148.411-.316.818-.51 1.21a11.74 11.74 0 01-.712 1.244c-.233.352-.507.68-.785.999-.377.434-.786.84-1.248 1.182-.41.304-.828.6-1.267.859-.386.229-.797.419-1.21.596a9.05 9.05 0 01-1.025.35c-.314.092-.634.162-.954.227-.197.04-.4.047-.598.081-.594.103-1.192.064-1.79.057-.274-.004-.548-.062-.822-.099a8.808 8.808 0 01-1.123-.22c-.253-.07-.508-.14-.754-.233a14.89 14.89 0 01-.925-.393c-.215-.098-.419-.222-.633-.322a.304.304 0 00-.205-.006c-.321.107-.638.228-.958.339-.249.087-.5.164-.75.25-.339.116-.676.237-1.014.354-.26.091-.522.178-.784.268-.04.014-.076.047-.117.053a.262.262 0 01-.145-.017c-.019-.009-.024-.072-.017-.107.056-.298.114-.595.174-.893.053-.26.114-.52.164-.783.049-.251.086-.505.134-.756.029-.159.07-.315.102-.473.03-.147.054-.295.082-.441.032-.167.059-.334.1-.499.026-.101.005-.173-.054-.262-.205-.31-.413-.62-.585-.95a15.282 15.282 0 01-.592-1.265c-.118-.287-.192-.592-.28-.89-.059-.2-.122-.401-.16-.605a10.19 10.19 0 01-.14-.95c-.037-.409-.075-.822-.062-1.232.016-.509.066-1.019.135-1.524.051-.37.138-.739.244-1.097.24-.81.566-1.584.999-2.312.38-.639.823-1.23 1.33-1.773.428-.455.894-.864 1.396-1.234A8.984 8.984 0 015.958.847c.38-.16.769-.305 1.163-.426.39-.12.79-.21 1.19-.294.238-.049.484-.069.728-.081A33.48 33.48 0 0110.472 0c.264-.002.53.02.792.056.335.048.668.113.998.189.295.068.59.145.875.244a10.042 10.042 0 014.258 2.797 9.904 9.904 0 011.35 1.892c.27.496.513 1.005.682 1.546.125.401.25.805.343 1.215.073.323.104.656.14.986.039.354.062.71.09 1.047zM3.176 17.625c.07-.017.114-.025.157-.04.141-.05.28-.107.422-.157.405-.142.808-.286 1.215-.42.121-.04.24-.098.379-.003.401.275.823.518 1.275.701.343.14.69.272 1.04.388.204.067.42.102.632.14.334.06.667.133 1.004.16.362.03.728.016 1.093.016.13 0 .262-.004.391-.021.239-.031.476-.07.712-.113.224-.04.45-.076.668-.14.279-.08.553-.178.824-.284.286-.112.58-.217.845-.368.425-.243.84-.503 1.24-.786a7.231 7.231 0 001.448-1.4c.224-.28.442-.571.62-.882.236-.41.44-.838.639-1.267.105-.228.18-.472.254-.712.067-.213.12-.43.172-.648.032-.135.05-.272.071-.408.035-.222.084-.443.098-.667.02-.328.018-.658.018-.988a4.76 4.76 0 00-.027-.534 11.298 11.298 0 00-.105-.679c-.04-.228-.075-.458-.138-.68a9.187 9.187 0 00-.288-.847 8.182 8.182 0 00-.4-.896 9.775 9.775 0 00-.62-.995 6.965 6.965 0 00-.719-.883 11.505 11.505 0 00-1.092-.967 7.216 7.216 0 00-.986-.634 9.886 9.886 0 00-1.094-.504 8.228 8.228 0 00-.936-.288 6.74 6.74 0 00-.695-.134c-.277-.043-.554-.094-.832-.103-.47-.015-.942-.031-1.41.046-.203.034-.411.035-.61.082-.359.084-.714.185-1.066.291a6.413 6.413 0 00-.734.262 8.45 8.45 0 00-1.443.812A8.485 8.485 0 003.292 4.9a8.544 8.544 0 00-1.338 2.59c-.087.272-.136.557-.199.837a4.56 4.56 0 00-.07.383c-.036.262-.092.524-.092.786 0 .535.027 1.07.052 1.604.008.156.045.313.08.467.05.227.102.454.168.677.081.279.158.562.27.829.154.362.335.713.515 1.063.225.439.522.83.83 1.214.052.065.074.119.058.203-.074.384-.14.77-.213 1.155-.03.158-.076.313-.107.47-.027.139-.044.28-.07.448z"/><path d="M6.43 5.001c.178.024.358.043.536.072.228.037.355.194.44.393.221.515.44 1.031.658 1.548.07.167.16.331.196.505a.8.8 0 01-.206.737c-.171.186-.336.379-.504.569-.123.139-.143.426-.038.577.337.485.684.962 1.083 1.398.405.441.848.833 1.391 1.098.369.18.736.361 1.11.532.133.061.275.05.381-.07.158-.178.312-.36.464-.542.131-.158.253-.325.387-.48.198-.23.45-.299.73-.157.588.299 1.181.586 1.772.877.057.028.115.055.173.077.262.103.396.294.36.574-.036.265-.098.527-.153.789-.052.242-.202.427-.374.593-.369.357-.785.645-1.28.792-.424.126-.86.113-1.292.032a9.083 9.083 0 01-.67-.144 5.755 5.755 0 01-.638-.206c-.385-.152-.775-.297-1.143-.483-.418-.213-.82-.46-1.22-.707a5.036 5.036 0 01-1.039-.882 82.66 82.66 0 01-1.334-1.468 7.592 7.592 0 01-1.032-1.49 4.209 4.209 0 01-.414-1.18c-.078-.405-.152-.807-.146-1.22.005-.325.067-.637.259-.909.19-.27.38-.545.583-.806.241-.31.556-.465.965-.382l-.004-.037h-.002z"/></g><defs><clipPath id="eclip0_338_761"><path d="M0 0h20v20H0z"/></clipPath></defs></svg></svg>