<svg width="40" height="40" viewBox="0 0 40 40" fill="none" xmlns="http://www.w3.org/2000/svg">
<path d="M31.0088 5.47526C29.9837 5.25177 29.0636 4.73926 28.354 4.0295C27.6442 3.31981 27.1317 2.39979 26.9082 1.37469C26.7899 0.743781 26.2642 0.283813 25.6334 0.283813L14.3699 0.283817C13.7449 0.283817 13.2262 0.732819 13.0986 1.34472C12.8643 2.46875 12.2842 3.46067 11.4785 4.20036C10.7943 4.83205 9.93869 5.27918 8.97785 5.47598C8.36496 5.6015 7.91683 6.12446 7.91683 6.75008L7.91682 14.0707C7.91682 21.2534 12.3644 27.6471 19.0246 30.1728C19.6544 30.4116 20.3619 30.4115 20.9916 30.1722C27.6407 27.6462 32.0996 21.2529 32.0996 14.0707V6.75008C32.0996 6.11925 31.6397 5.5935 31.0088 5.47526ZM25.8699 13.361L23.754 15.4244L24.2534 18.3289C24.4111 19.2489 23.4385 19.9586 22.6105 19.525L20.0082 18.1449L17.3928 19.525C16.5648 19.9586 15.5922 19.2489 15.7499 18.3289L16.2494 15.4244L14.1334 13.361C13.4631 12.7038 13.8442 11.5604 14.7642 11.4289L17.682 11.0084L18.9831 8.36662C19.4037 7.52554 20.5996 7.52554 21.0202 8.36662L22.3213 11.0084L25.2391 11.4289C26.1722 11.5604 26.5402 12.7038 25.8699 13.361Z" fill="#3F784B"/>
<path d="M39.3677 33.2198C38.1979 33.8375 37.0545 34.5078 35.9636 35.2044C36.4237 36.4399 36.818 37.6884 37.1728 38.9369C37.3042 39.4232 36.818 39.857 36.3317 39.6729C25.8174 35.6381 14.1859 35.6381 3.67163 39.6729C3.18535 39.857 2.69907 39.4232 2.83055 38.9369C3.18535 37.6884 3.57962 36.4399 4.03967 35.2044C2.93563 34.5078 1.80537 33.8375 0.622476 33.2198C0.149353 32.9701 0.175664 32.2735 0.675099 32.0764C4.40763 30.6307 8.27163 29.6319 12.1751 29.0667C13.8968 30.5913 15.8814 31.7872 18.0894 32.6284C19.2908 33.0885 20.6568 33.1149 21.9271 32.6284C24.1351 31.7872 26.1328 30.5781 27.8545 29.0667C31.7448 29.6319 35.5957 30.6438 39.3151 32.0764C39.8276 32.2735 39.854 32.9701 39.3677 33.2198Z" fill="#3F784B"/>
</svg>
