<svg width="35" height="34" viewBox="0 0 35 34" fill="none" xmlns="http://www.w3.org/2000/svg">
<g clip-path="url(#clip0_735_5956)">
<path d="M31.081 14.2578H21.2387C20.7865 14.2414 20.4164 13.8713 20.4164 13.4191C20.4164 13.378 20.4164 13.3287 20.4247 13.2875C20.622 12.6873 22.7023 6.38888 22.8339 4.32503C23.0723 2.18718 21.5265 0.26312 19.3886 0.0246675C19.1173 -0.00822249 18.8459 -0.00822249 18.5746 0.0246675C17.9908 0.03289 17.481 0.444015 17.3495 1.01137C16.8314 3.09166 15.6227 7.97582 11.273 11.5444C8.95429 13.4602 8.37872 15.1541 8.23071 15.7214V31.7306C8.29649 31.9279 8.46094 32.0842 8.6665 32.1335C9.40653 32.3062 10.1137 32.5693 10.7879 32.9146C12.2351 33.6464 13.8385 34.0164 15.4583 33.9918H26.0982C29.5516 34.0082 32.4953 31.4839 33.0215 28.0716L34.4687 18.2375C34.7482 16.3381 33.4326 14.5703 31.5333 14.2907C31.377 14.266 31.2208 14.2578 31.0646 14.2578H31.081Z" fill="#3F784B"/>
<path d="M-0.553213 11.9914H4.02671C4.70096 11.9914 5.24364 12.5341 5.24364 13.2083V31.9063C5.24364 32.5805 4.70096 33.1232 4.02671 33.1232H-0.553213C-1.22746 33.1067 -1.77014 32.564 -1.77014 31.898V13.2001C-1.77014 12.5258 -1.22746 11.9832 -0.553213 11.9832V11.9914Z" fill="#3F784B"/>
</g>
<defs>
<clipPath id="clip0_735_5956">
<rect width="34.518" height="34" fill="white"/>
</clipPath>
</defs>
</svg>
