<svg width="44" height="26" viewBox="0 0 44 26" fill="none" xmlns="http://www.w3.org/2000/svg">
<path d="M33.0208 2.3069L30.1458 0.666236C29.9979 0.588198 29.8338 0.545552 29.6666 0.541652H20.0833C19.947 0.54063 19.8122 0.569241 19.6881 0.625503C19.564 0.681764 19.4536 0.764331 19.3645 0.867486L12.6562 8.53415C12.4942 8.71672 12.408 8.95423 12.4151 9.19821C12.4222 9.44219 12.5222 9.67426 12.6945 9.84707L13.8158 10.9683C14.7174 11.8646 15.937 12.3677 17.2083 12.3677C18.4796 12.3677 19.6992 11.8646 20.6008 10.9683L23.15 8.41915L26.1208 9.90457L30.7678 17.3393C30.8539 17.4779 30.9741 17.5922 31.1168 17.6714C31.2595 17.7505 31.4201 17.7919 31.5833 17.7917H32.5416C32.7958 17.7917 33.0396 17.6907 33.2193 17.511C33.399 17.3312 33.5 17.0875 33.5 16.8333V3.13874C33.5003 2.97019 33.4562 2.80454 33.372 2.6585C33.2879 2.51245 33.1668 2.39117 33.0208 2.3069Z" fill="#3F784B"/>
<path d="M7.62496 0.541626H1.87496C1.62079 0.541626 1.37704 0.642593 1.19732 0.822316C1.01759 1.00204 0.916626 1.24579 0.916626 1.49996V20.6666C0.916626 20.9208 1.01759 21.1645 1.19732 21.3443C1.37704 21.524 1.62079 21.625 1.87496 21.625H7.62496C7.87913 21.625 8.12288 21.524 8.3026 21.3443C8.48233 21.1645 8.58329 20.9208 8.58329 20.6666V1.49996C8.58329 1.24579 8.48233 1.00204 8.3026 0.822316C8.12288 0.642593 7.87913 0.541626 7.62496 0.541626ZM4.74996 19.7083C4.37088 19.7083 4.00031 19.5959 3.68512 19.3853C3.36992 19.1747 3.12426 18.8753 2.97919 18.5251C2.83412 18.1749 2.79617 17.7895 2.87012 17.4177C2.94408 17.0459 3.12662 16.7044 3.39467 16.4363C3.66272 16.1683 4.00424 15.9857 4.37604 15.9118C4.74783 15.8378 5.13321 15.8758 5.48344 16.0209C5.83366 16.1659 6.133 16.4116 6.34361 16.7268C6.55422 17.042 6.66663 17.4125 6.66663 17.7916C6.66511 18.2995 6.46269 18.7861 6.10357 19.1452C5.74446 19.5044 5.25782 19.7068 4.74996 19.7083Z" fill="#3F784B"/>
<path d="M42.125 0.541626H36.375C36.1208 0.541626 35.877 0.642593 35.6973 0.822316C35.5176 1.00204 35.4166 1.24579 35.4166 1.49996V20.6666C35.4166 20.9208 35.5176 21.1645 35.6973 21.3443C35.877 21.524 36.1208 21.625 36.375 21.625H42.125C42.3791 21.625 42.6229 21.524 42.8026 21.3443C42.9823 21.1645 43.0833 20.9208 43.0833 20.6666V1.49996C43.0833 1.24579 42.9823 1.00204 42.8026 0.822316C42.6229 0.642593 42.3791 0.541626 42.125 0.541626ZM39.25 19.7083C38.8709 19.7083 38.5003 19.5959 38.1851 19.3853C37.8699 19.1747 37.6243 18.8753 37.4792 18.5251C37.3341 18.1749 37.2962 17.7895 37.3701 17.4177C37.4441 17.0459 37.6266 16.7044 37.8947 16.4363C38.1627 16.1683 38.5042 15.9857 38.876 15.9118C39.2478 15.8378 39.6332 15.8758 39.9834 16.0209C40.3337 16.1659 40.633 16.4116 40.8436 16.7268C41.0542 17.042 41.1666 17.4125 41.1666 17.7916C41.1651 18.2995 40.9627 18.7861 40.6036 19.1452C40.2445 19.5044 39.7578 19.7068 39.25 19.7083Z" fill="#3F784B"/>
<path d="M29.1492 18.357L24.7792 11.3804L23.5238 10.7479L21.9521 12.3195C21.3292 12.9425 20.5896 13.4367 19.7757 13.7739C18.9617 14.1111 18.0894 14.2846 17.2084 14.2846C16.3273 14.2846 15.455 14.1111 14.641 13.7739C13.8271 13.4367 13.0875 12.9425 12.4646 12.3195L11.3434 11.1983C10.804 10.6596 10.5007 9.92887 10.5 9.16663V18.357C10.4988 18.5366 10.5487 18.7127 10.6438 18.865L14.4771 25.0079C14.5634 25.146 14.6835 25.2598 14.826 25.3386C14.9686 25.4174 15.1288 25.4586 15.2917 25.4583H24.8559C25.0121 25.4586 25.1664 25.4226 25.3063 25.3529L29.1396 23.4362C29.1915 23.4146 29.2399 23.3856 29.2834 23.35L33.1167 20.475C33.235 20.385 33.3311 20.2691 33.3976 20.1362C33.464 20.0033 33.4991 19.8569 33.5 19.7083H31.5834C31.0961 19.7093 30.6166 19.5856 30.1906 19.3491C29.7646 19.1126 29.4061 18.7711 29.1492 18.357Z" fill="#3F784B"/>
<path d="M15.4162 2.45837H11.4583C11.2042 2.45837 10.9604 2.55934 10.7807 2.73906C10.601 2.91879 10.5 3.16254 10.5 3.41671V9.16671C10.5023 8.46983 10.7539 7.79678 11.2092 7.26921L15.4162 2.45837Z" fill="#3F784B"/>
</svg>
