<svg width="39" height="40" viewBox="0 0 39 40" fill="none" xmlns="http://www.w3.org/2000/svg">
<path fill-rule="evenodd" clip-rule="evenodd" d="M17.8065 0.954246C13.1832 3.6506 7.33359 5.49619 2.91887 6.11358C1.31642 6.3377 0.00317185 7.65484 0.00686819 9.27352L0.00908033 10.2422C-0.0502518 22.0253 0.9399 32.3392 18.4606 39.3036C19.1193 39.5653 19.8724 39.5655 20.5311 39.3038C38.0665 32.3394 39.0618 22.0255 39.0025 10.2422L39.0019 9.26513C39.0009 7.64973 37.689 6.3212 36.0939 6.07086C31.9051 5.41349 25.7948 3.58716 21.1762 0.945916C20.1347 0.350226 18.843 0.349732 17.8065 0.954246ZM26.7314 17.4855C27.493 16.7237 27.493 15.4885 26.7314 14.7267C25.9699 13.9649 24.7351 13.9649 23.9737 14.7267L17.5525 21.1503L15.0314 18.6282C14.2699 17.8664 13.0352 17.8664 12.2737 18.6282C11.5122 19.3901 11.5122 20.6252 12.2737 21.387L16.1737 25.2886C16.9352 26.0505 18.1699 26.0505 18.9314 25.2886L26.7314 17.4855Z" fill="#3F784B"/>
</svg>
