<svg width="44" height="44" viewBox="0 0 44 44" fill="none" xmlns="http://www.w3.org/2000/svg">
<path d="M30.3632 18.2737C30.3682 18.6389 30.163 18.9741 29.8329 19.1292L25.0956 21.4353C22.4393 22.7309 20.3783 25.002 19.3428 27.7683L16.6315 34.9118C16.5015 35.2869 16.1413 35.5321 15.7461 35.522C15.3559 35.517 15.0007 35.2769 14.8607 34.9118L12.1744 27.7683C11.1389 25.002 9.07789 22.7309 6.42161 21.4353L1.68431 19.1292C1.21909 18.929 1.00399 18.3838 1.2041 17.9135C1.29914 17.6984 1.46921 17.5284 1.68431 17.4333L6.42161 15.1322C9.07789 13.8316 11.1389 11.5655 12.1744 8.79916L14.8607 1.6557C15.1008 1.16547 15.6911 0.960384 16.1813 1.20049C16.3764 1.30054 16.5365 1.45562 16.6315 1.6557L19.3428 8.79916C20.3783 11.5655 22.4393 13.8316 25.0956 15.1322L29.8329 17.4333C30.1581 17.5884 30.3632 17.9135 30.3632 18.2737Z" fill="#3F784B"/>
<path d="M42.399 33.7859L39.7693 35.0582C38.3565 35.7475 37.2629 36.9475 36.7098 38.4156L35.2204 42.3814C35.1396 42.5942 34.9736 42.7644 34.7566 42.8452C34.3396 43.0069 33.8758 42.7984 33.7141 42.3814L32.229 38.4156C31.6716 36.9475 30.578 35.7433 29.1653 35.0539L26.5398 33.7859C26.3781 33.705 26.2505 33.5774 26.1696 33.4157C25.9696 33.0114 26.1356 32.5221 26.5398 32.3178L29.1653 31.0455C30.578 30.3562 31.6716 29.1562 32.229 27.6839L33.7141 23.7223C33.7949 23.5521 33.9311 23.4202 34.0971 23.3394C34.5141 23.1309 35.0162 23.3053 35.2204 23.7223L36.7098 27.6839C37.2629 29.1562 38.3565 30.3562 39.7693 31.0455L42.399 32.3178V32.3221C42.5777 32.4029 42.7181 32.5434 42.799 32.7221C42.9819 33.1263 42.8032 33.6029 42.399 33.7859Z" fill="#3F784B"/>
</svg>
