<svg width="37" height="41" viewBox="0 0 37 41" fill="none" xmlns="http://www.w3.org/2000/svg">
<path fill-rule="evenodd" clip-rule="evenodd" d="M15.3797 0C14.6216 2.28801 15.1123 4.93885 16.004 7.84849C12.2413 10.5579 9.21193 14.2949 7.77862 18.7473C5.63484 25.4071 7.57718 31.8006 11.6353 37.0427C-6.69423 30.2356 -1.79052 5.35116 15.3797 0ZM16.6859 39.4408C16.5986 40.2096 17.1512 40.9036 17.92 40.9909C18.6889 41.0782 19.3829 40.5256 19.4702 39.7568C19.6078 38.5594 19.7866 37.3743 20.0069 36.2014C35.2812 30.1171 30.0139 12.0246 36.534 6.22189C19.1027 2.29673 0.817726 19.9012 14.496 36.1113C14.9248 33.3316 15.5658 30.6225 16.419 27.984C17.3956 24.964 18.646 22.0405 20.1701 19.2135C20.537 18.5311 21.3878 18.2754 22.0701 18.6423C22.7525 19.0092 23.0082 19.8599 22.6411 20.5423C19.4293 26.5015 17.4587 32.7151 16.6859 39.4408Z" fill="#3F784B"/>
</svg>
