<svg width="44" height="45" viewBox="0 0 44 45" fill="none" xmlns="http://www.w3.org/2000/svg">
<path d="M30.363 18.7737C30.368 19.1389 30.1629 19.4741 29.8328 19.6292L25.0955 21.9353C22.4392 23.2309 20.3782 25.502 19.3427 28.2683L16.6314 35.4118C16.5013 35.7869 16.1412 36.0321 15.746 36.022C15.3558 36.017 15.0006 35.7769 14.8606 35.4118L12.1743 28.2683C11.1388 25.502 9.07777 23.2309 6.42149 21.9353L1.68419 19.6292C1.21897 19.429 1.00387 18.8838 1.20398 18.4135C1.29902 18.1984 1.46909 18.0284 1.68419 17.9333L6.42149 15.6322C9.07777 14.3316 11.1388 12.0655 12.1743 9.29916L14.8606 2.1557C15.1007 1.66547 15.6909 1.46038 16.1812 1.70049C16.3763 1.80054 16.5364 1.95562 16.6314 2.1557L19.3427 9.29916C20.3782 12.0655 22.4392 14.3316 25.0955 15.6322L29.8328 17.9333C30.1579 18.0884 30.363 18.4135 30.363 18.7737Z" fill="#3F784B"/>
<path d="M42.3989 34.2859L39.7691 35.5582C38.3564 36.2475 37.2628 37.4475 36.7096 38.9156L35.2203 42.8814C35.1395 43.0942 34.9735 43.2644 34.7565 43.3452C34.3395 43.5069 33.8757 43.2984 33.714 42.8814L32.2289 38.9156C31.6715 37.4475 30.5779 36.2433 29.1652 35.5539L26.5397 34.2859C26.378 34.205 26.2503 34.0774 26.1695 33.9157C25.9695 33.5114 26.1354 33.0221 26.5397 32.8178L29.1652 31.5455C30.5779 30.8562 31.6715 29.6562 32.2289 28.1839L33.714 24.2223C33.7948 24.0521 33.931 23.9202 34.0969 23.8394C34.5139 23.6309 35.0161 23.8053 35.2203 24.2223L36.7096 28.1839C37.2628 29.6562 38.3564 30.8562 39.7691 31.5455L42.3989 32.8178V32.8221C42.5776 32.9029 42.718 33.0434 42.7988 33.2221C42.9818 33.6263 42.8031 34.1029 42.3989 34.2859Z" fill="#3F784B"/>
</svg>
