<svg width="37" height="37" viewBox="0 0 37 37" fill="none" xmlns="http://www.w3.org/2000/svg">
<g clip-path="url(#clip0_761_528)">
<path d="M32.9093 15.5965H22.488C22.0092 15.5791 21.6174 15.1873 21.6174 14.7085C21.6174 14.6649 21.6174 14.6127 21.6261 14.5692C21.835 13.9336 24.0377 7.26469 24.177 5.07944C24.4295 2.81584 22.7927 0.778597 20.5291 0.526119C20.2418 0.491294 19.9545 0.491294 19.6672 0.526119C19.0491 0.534825 18.5093 0.970133 18.37 1.57086C17.8215 3.77352 16.5417 8.94498 11.9361 12.7235C9.48099 14.752 8.87155 16.5455 8.71484 17.1462V34.0971C8.78449 34.306 8.95862 34.4715 9.17627 34.5237C9.95983 34.7065 10.7086 34.9851 11.4225 35.3508C12.9547 36.1256 14.6524 36.5174 16.3676 36.4913H27.6333C31.2899 36.5087 34.4067 33.8359 34.9639 30.2229L36.4962 19.8103C36.7922 17.7992 35.3992 15.9273 33.3881 15.6313C33.2227 15.6052 33.0573 15.5965 32.8919 15.5965H32.9093Z" fill="#3F784B"/>
<path d="M-0.585755 13.1967H4.26358C4.97749 13.1967 5.55209 13.7713 5.55209 14.4852V34.283C5.55209 34.9969 4.97749 35.5715 4.26358 35.5715H-0.585755C-1.29966 35.5541 -1.87427 34.9795 -1.87427 34.2743V14.4765C-1.87427 13.7626 -1.29966 13.188 -0.585755 13.188V13.1967Z" fill="#3F784B"/>
</g>
<defs>
<clipPath id="clip0_761_528">
<rect width="36.5485" height="36" fill="white" transform="translate(0 0.5)"/>
</clipPath>
</defs>
</svg>
