<svg width="39" height="39" viewBox="0 0 39 39" fill="none" xmlns="http://www.w3.org/2000/svg">
<path fill-rule="evenodd" clip-rule="evenodd" d="M17.8065 0.454246C13.1832 3.1506 7.33359 4.99619 2.91887 5.61358C1.31642 5.8377 0.00317185 7.15484 0.00686819 8.77352L0.00908033 9.74224C-0.0502518 21.5253 0.9399 31.8392 18.4606 38.8036C19.1193 39.0653 19.8724 39.0655 20.5311 38.8038C38.0665 31.8394 39.0618 21.5255 39.0025 9.74224L39.0019 8.76513C39.0009 7.14973 37.689 5.8212 36.0939 5.57086C31.9051 4.91349 25.7948 3.08716 21.1762 0.445916C20.1347 -0.149774 18.843 -0.150268 17.8065 0.454246ZM26.7314 16.9855C27.493 16.2237 27.493 14.9885 26.7314 14.2267C25.9699 13.4649 24.7351 13.4649 23.9737 14.2267L17.5525 20.6503L15.0314 18.1282C14.2699 17.3664 13.0352 17.3664 12.2737 18.1282C11.5122 18.8901 11.5122 20.1252 12.2737 20.887L16.1737 24.7886C16.9352 25.5505 18.1699 25.5505 18.9314 24.7886L26.7314 16.9855Z" fill="#3F784B"/>
</svg>
