<svg xmlns="http://www.w3.org/2000/svg" version="1.1" xmlns:xlink="http://www.w3.org/1999/xlink" width="50" height="50"><svg width="50" height="50" viewBox="0 0 50 50" fill="none" xmlns="http://www.w3.org/2000/svg">
<path d="M24.41 0.00020846C10.2915 0.0567048 -1.0473 12.1074 0.0769772 26.4688C0.997867 38.2482 10.3989 47.8016 22.1671 48.8976C29.7771 49.6096 36.7657 46.813 41.7035 41.9431V45.3896C41.7035 47.4063 43.3419 49.0447 45.359 49.0447C47.3757 49.0447 49.0141 47.4063 49.0141 45.3896V24.9094C49.0141 11.3786 37.9465 -0.0562879 24.4156 0.00020846H24.41ZM26.3704 41.6041C15.427 42.7623 6.24639 33.5816 7.40454 22.6383C8.252 14.661 14.6587 8.25434 22.636 7.40687C33.5793 6.24872 42.76 15.4294 41.6018 26.3727C40.7544 34.35 34.3477 40.7567 26.3704 41.6041Z" fill="white"></path>
<path d="M33.4717 25.5364C32.1779 24.7738 30.726 24.3896 29.274 24.3896C27.743 24.3896 26.2063 24.8133 24.8617 25.6664C22.5284 27.141 19.5623 27.1862 17.0765 25.9884L11.7884 23.4404C11.7093 24.35 11.7263 25.2766 11.8732 26.2653C12.7828 32.3838 17.9917 37.1126 24.1724 37.2708C30.3136 37.4289 35.5112 33.2369 36.9011 27.5534L33.4717 25.5308V25.5364Z" fill="#3F784B"></path>
<path d="M27.206 15.5645C28.4659 15.8018 29.5563 14.717 29.3133 13.4572C29.1777 12.7566 28.6072 12.1803 27.9066 12.0504C26.6467 11.8131 25.5563 12.8978 25.7993 14.1577C25.9349 14.8583 26.5055 15.4345 27.206 15.5645Z" fill="#3F784B"></path>
<path d="M19.5454 24.0058C22.0935 24.4861 24.2855 22.2997 23.7996 19.7517C23.5285 18.328 22.3816 17.1811 20.9579 16.9099C18.4099 16.4297 16.2178 18.6161 16.7037 21.1641C16.9749 22.5878 18.1218 23.7347 19.5454 24.0058Z" fill="#3F784B"></path>
<path d="M30.5959 20.4575C31.0592 20.4575 31.4321 20.0846 31.4321 19.6213C31.4321 19.158 31.0592 18.7852 30.5959 18.7852C30.1327 18.7852 29.7598 19.158 29.7598 19.6213C29.7598 20.0846 30.1327 20.4575 30.5959 20.4575Z" fill="#3F784B"></path>
</svg><style>@media (prefers-color-scheme: light) { :root { filter: none; } }
@media (prefers-color-scheme: dark) { :root { filter: none; } }
</style></svg>